<svg xmlns="http://www.w3.org/2000/svg" viewBox="0 0 309.81 65.09"><defs><style>.cls-1{fill:#fff;}.cls-2{fill:gold;}</style></defs><g id="katman_2" data-name="katman 2"><g id="katman_1-2" data-name="katman 1"><path class="cls-1" d="M27.07,0h8.28V49.75H27.07V48.38a17.28,17.28,0,0,1-8.93,2.45A17,17,0,0,1,5.33,45.18,19.1,19.1,0,0,1,0,31.57,19,19,0,0,1,5.33,18a17,17,0,0,1,12.81-5.62,17.38,17.38,0,0,1,8.93,2.45Zm0,31.61v-.07a5.1,5.1,0,0,0-.07-.87v-.5a.53.53,0,0,1-.07-.22,10,10,0,0,0-.72-2.88,8.83,8.83,0,0,0-5.91-5.9,7.34,7.34,0,0,0-2.08-.43H17.5a3.45,3.45,0,0,0-.72.07A8.07,8.07,0,0,0,13.32,22h-.07l-.65.51a3.32,3.32,0,0,0-.5.43c-.1.05-.15.09-.15.14a11,11,0,0,0-3.53,8.5,11.52,11.52,0,0,0,2.52,7.45,8.37,8.37,0,0,0,6.2,3.35,3.89,3.89,0,0,0,.57.07h.43a1.55,1.55,0,0,0,.29,0l.29,0a7.91,7.91,0,0,0,4.46-2A10.81,10.81,0,0,0,27.07,31.61Z"/><path class="cls-1" d="M45.72,9.72a4.86,4.86,0,0,1-2.48-.65A4.81,4.81,0,0,1,40.82,4.9a4.71,4.71,0,0,1,1.44-3.46,4.78,4.78,0,0,1,6.84,0,4.67,4.67,0,0,1,1.44,3.42A4.67,4.67,0,0,1,49.1,8.28,4.62,4.62,0,0,1,45.72,9.72Zm4.1,40.68H41.47V11.81h8.35Z"/><path class="cls-1" d="M56,14V11.81h8.36V52q0,6.27-3.21,9.69t-9,3.42a13.73,13.73,0,0,1-2-.15V57.67a7,7,0,0,0,1.44.15,4.12,4.12,0,0,0,3.31-1.26c.72-.84,1.08-2.42,1.08-4.72Zm7.64-5.76a4.78,4.78,0,0,1-6.84,0,4.67,4.67,0,0,1-1.44-3.42,4.67,4.67,0,0,1,1.44-3.42,4.78,4.78,0,0,1,6.84,0,4.67,4.67,0,0,1,1.44,3.42A4.67,4.67,0,0,1,63.65,8.28Z"/><path class="cls-1" d="M74.59,9.72a4.86,4.86,0,0,1-2.48-.65A4.81,4.81,0,0,1,69.69,4.9a4.71,4.71,0,0,1,1.44-3.46,4.78,4.78,0,0,1,6.84,0,4.67,4.67,0,0,1,1.44,3.42A4.67,4.67,0,0,1,78,8.28,4.62,4.62,0,0,1,74.59,9.72Zm4.1,40.68H70.34V11.81h8.35Z"/><path class="cls-1" d="M95.25,42.05h3.32v8.42H95.25a10.82,10.82,0,0,1-10.8-10.8V3.82h8.43V14h5.47v8.42H92.88V39.67a2.33,2.33,0,0,0,.32,1.19,2.47,2.47,0,0,0,.87.86A2.21,2.21,0,0,0,95.25,42.05Z"/><path class="cls-1" d="M120,11.81a10.26,10.26,0,0,1,7.6,3.17,10.4,10.4,0,0,1,3.13,7.56V49.68H122.4V48a13.81,13.81,0,0,1-7.71,2.31,13,13,0,0,1-9.5-3.93,12.87,12.87,0,0,1-4-9.5,13.52,13.52,0,0,1,13.46-13.5h7.71v-.86a2.19,2.19,0,0,0-.69-1.62,2.28,2.28,0,0,0-1.69-.69h-5.33V11.81ZM114.69,42A5.71,5.71,0,0,0,117.9,41a6.63,6.63,0,0,0,2.23-2.56,21.08,21.08,0,0,0,1.33-3.24,18.51,18.51,0,0,0,.72-3.42h-7.49a5,5,0,0,0-3.6,1.48,4.78,4.78,0,0,0-1.51,3.56A5.17,5.17,0,0,0,114.69,42Z"/><path class="cls-1" d="M144.79,50.4h-8.28V0h8.28Z"/><path class="cls-2" d="M177.91,11.81h9.36l-16.56,51h-9.36l7.7-23.68h-9.29l-12-27.29h9.36l12,27.29Z"/><path class="cls-2" d="M204.33,11.81a10.26,10.26,0,0,1,7.6,3.17,10.36,10.36,0,0,1,3.13,7.56V49.68h-8.35V48a13.78,13.78,0,0,1-7.7,2.31,13,13,0,0,1-9.51-3.93,12.87,12.87,0,0,1-4-9.5A13.52,13.52,0,0,1,199,23.4h7.7v-.86a2.19,2.19,0,0,0-.69-1.62,2.28,2.28,0,0,0-1.69-.69H199V11.81ZM199,42a5.7,5.7,0,0,0,3.2-.94,6.55,6.55,0,0,0,2.23-2.56,20.12,20.12,0,0,0,1.33-3.24,18.51,18.51,0,0,0,.72-3.42H199a5,5,0,0,0-3.61,1.48,4.81,4.81,0,0,0-1.51,3.56A5.17,5.17,0,0,0,199,42Z"/><path class="cls-2" d="M225.36,17.5a17.42,17.42,0,0,1,25.63,0,19,19,0,0,1,5.33,13.6V50.33h-8.43V31.1a11.16,11.16,0,0,0-2.84-7.66,9,9,0,0,0-13.75,0,11.13,11.13,0,0,0-2.85,7.66V50.4H220V31.1A19,19,0,0,1,225.36,17.5Z"/><path class="cls-2" d="M298.65,11.81,281.3,28.37l15.05,22H286.12L275.18,34.2l-5.33,5V50.4h-8.28V0h8.28V28.8l18.29-17.06Z"/><rect class="cls-2" x="301.46" y="11.81" width="8.35" height="38.59"/></g></g></svg>