<svg xmlns="http://www.w3.org/2000/svg" fill='currentColor' viewBox="0 0 298.76 243.68"><g id="katman_2" data-name="katman 2"><g id="katman_1-2" data-name="katman 1"><path d="M139.59,128.69c-2.67,5.51-3.45,11-1.57,16.76a18.82,18.82,0,0,0,8.58,10.92c2.33,1.32,3.18,2.88,2.67,5.38a2.61,2.61,0,0,0,0,.74c.49,6.5,0,11.81-6.46,16.44-6.92,5-7.63,15.48-3.45,23.29,3.65,6.81,7.49,13.52,11.58,20.07,5.92,9.45,17.18,12.43,27.16,7.28,2.18-1.13,3.65-1.2,5.65.29a29.54,29.54,0,0,0,7.43,4.25c3.09,1.11,3.83,3.36,3,5.75-.47,1.38-2.59,2.61-4.2,3a27.77,27.77,0,0,1-7.41.74q-78.6.06-157.19,0c-16.32,0-26-10.22-25.3-26.5C2.1,171,34,133.89,79.76,126.05A138.4,138.4,0,0,1,137,127.8C137.79,128,138.58,128.34,139.59,128.69Z"/><path d="M241.45,224.8c0,4,0,8,0,12,0,4.73-1.62,6.38-6.19,6.4-6.48,0-13,.06-19.46,0-3.94,0-5.67-1.76-5.75-5.71-.08-4.11,0-8.21,0-12.18-4.93-2.22-9.83-4-14.34-6.56a60.75,60.75,0,0,1-10.55-7.65c-2-1.77-3.35-1.87-5.46-.46-2.68,1.79-5.56,3.31-8.41,4.85-3,1.63-5.58,1-7.34-2-3.47-5.91-6.93-11.82-10.25-17.81-1.82-3.28-1.08-5.52,2.21-7.53s8.23-3.28,9.91-6.28c1.52-2.71-.72-7.33-.64-11.1.13-6.07.92-12.13,1.16-18.21a5.06,5.06,0,0,0-1.78-3.72c-2.73-1.94-5.8-3.4-8.67-5.15-3.26-2-4-4.29-2.19-7.55,3.33-6,6.79-11.9,10.27-17.81,1.76-3,4.33-3.59,7.35-1.94s6.11,3.37,9.06,5.23c1.63,1,2.73,1,4.19-.4a57.16,57.16,0,0,1,23.07-13.36c2-.61,2.51-1.54,2.44-3.43-.11-3.37-.09-6.74,0-10.1.09-3.81,1.73-5.58,5.43-5.63q10.29-.15,20.58,0c3.7.06,5.3,1.84,5.38,5.68.07,3.49-.14,7,.12,10.47a3.79,3.79,0,0,0,2,2.77,65.93,65.93,0,0,1,23.77,13.77,3.87,3.87,0,0,0,3.44.31c3.13-1.53,6-3.48,9.11-5.14,3.55-1.93,5.77-1.36,7.85,2.13q5.06,8.52,9.9,17.16c2,3.5,1.32,5.77-2.09,7.86s-8.32,3.27-9.9,6.27.71,7.59.65,11.48c-.09,5.83-.58,11.66-1.24,17.46-.23,2-.08,3.23,1.83,4.21,2.88,1.48,5.66,3.15,8.44,4.82,3.63,2.18,4.32,4.46,2.27,8.12q-4.83,8.64-9.9,17.15c-2,3.39-4.39,4-7.89,2.06-3.06-1.68-6-3.63-9.11-5.15a3.86,3.86,0,0,0-3.46.38A64,64,0,0,1,241.45,224.8Zm-15.8-83.63a24.77,24.77,0,1,0,24.84,24.56A24.6,24.6,0,0,0,225.65,141.17Z"/><path d="M104,104a52,52,0,1,1,52-51.79A51.81,51.81,0,0,1,104,104Z"/></g></g></svg>