<svg xmlns="http://www.w3.org/2000/svg" viewBox="0 0 45.65 49.43"><g id="katman_2" data-name="katman 2"><g id="katman_1-2" data-name="katman 1"><path d="M33.77,23.81V46.45a1.64,1.64,0,0,1-1.19,1.8,1.55,1.55,0,0,1-1.72-.59L29,45.33c-.13.13-.23.23-.32.34l-2.31,2.94a1.67,1.67,0,0,1-2.84,0l-2.66-3.37a3.8,3.8,0,0,1-.24.4l-2.28,2.9a1.69,1.69,0,0,1-2.93,0l-2.22-2.81c-.1-.13-.21-.26-.36-.43l-.54.66-2.06,2.61a1.64,1.64,0,0,1-2.85,0L5.15,45.75c-.1-.13-.22-.25-.37-.44L3.52,46.89a11.94,11.94,0,0,1-.78,1,1.48,1.48,0,0,1-1.69.37,1.54,1.54,0,0,1-1-1.39c0-.12,0-.24,0-.36V7.06A6.92,6.92,0,0,1,5.37.21,9.47,9.47,0,0,1,7.29,0C17.75,0,28.2.05,38.66,0a6.79,6.79,0,0,1,6.83,5.26,7.26,7.26,0,0,1,.15,1.47q0,6.81,0,13.61a3.3,3.3,0,0,1-3.42,3.47c-2.61,0-5.22,0-7.83,0Zm-1.65,23,.14,0V6.86a6.69,6.69,0,0,1,2.09-5,4.38,4.38,0,0,0,.34-.36H7.14a6.49,6.49,0,0,0-1.32.13A5.47,5.47,0,0,0,1.5,7.23v39c0,.17,0,.35,0,.66.21-.23.32-.35.42-.48l1.43-1.8a1.63,1.63,0,0,1,2.79,0l2.28,2.89c.11.14.23.27.38.44.91-1.16,1.77-2.26,2.64-3.35a1.65,1.65,0,0,1,2.74,0c.51.64,1,1.28,1.52,1.93L16.88,48c.17-.22.3-.37.43-.52.75-1,1.48-1.91,2.25-2.85a2.27,2.27,0,0,1,.79-.62,1.56,1.56,0,0,1,1.93.61c.88,1.1,1.75,2.22,2.66,3.37l.43-.5c.77-1,1.53-2,2.31-2.93a1.64,1.64,0,0,1,2.61,0c.51.62,1,1.26,1.49,1.89Zm1.67-24.5H42a1.89,1.89,0,0,0,2.14-2.14c0-1.94,0-3.88,0-5.83,0-2.67.06-5.35,0-8a5.17,5.17,0,0,0-10.33.42c0,5,0,10.09,0,15.13C33.77,22,33.78,22.13,33.79,22.33Z"/><path d="M16.89,17.24h9.57a2.16,2.16,0,0,1,.51,0,.7.7,0,0,1,.59.73.68.68,0,0,1-.55.71,2.55,2.55,0,0,1-.55,0q-9.55,0-19.09,0a2.59,2.59,0,0,1-.56,0A.68.68,0,0,1,6.24,18a.7.7,0,0,1,.62-.7,2.18,2.18,0,0,1,.51,0Z"/><path d="M16.89,30.87H7a.7.7,0,0,1-.72-.71A.71.71,0,0,1,7,29.4H26.51a2.37,2.37,0,0,1,.46,0,.73.73,0,0,1,0,1.43,2.6,2.6,0,0,1-.56,0Z"/><path d="M13.4,24.81c-2.06,0-4.12,0-6.19,0a1.33,1.33,0,0,1-.83-.35.67.67,0,0,1,.34-1.07,2,2,0,0,1,.65-.08H19.69c.58,0,.9.3.9.76s-.33.75-.9.75C17.59,24.82,15.5,24.81,13.4,24.81Z"/><path d="M13.44,35.46c2.08,0,4.16,0,6.24,0a1.13,1.13,0,0,1,.78.35.67.67,0,0,1-.36,1.06,2.09,2.09,0,0,1-.66.07H7.07c-.54,0-.84-.32-.83-.77s.32-.73.87-.73Z"/><path d="M13.39,12.66h-6a3.54,3.54,0,0,1-.46,0,.67.67,0,0,1-.65-.71.68.68,0,0,1,.62-.74,4.35,4.35,0,0,1,.51,0H19.65c.63,0,.94.26.94.75s-.32.74-1,.74Z"/></g></g></svg>