<svg xmlns="http://www.w3.org/2000/svg" viewBox="0 0 409.07 409.45"><defs><style>.cls-1{fill:#e11b1b;}.cls-2{fill:#e74a4a;}.cls-3{fill:#f08d8d;}.cls-4{fill:#fefefe;}</style></defs><g id="katman_2" data-name="katman 2"><g id="katman_1-2" data-name="katman 1"><path class="cls-1" d="M409.07,188.73v2.4c-.54.51-.35,1.19-.4,1.81v1.46c.1.78-.27,1.64.4,2.33v16c-.67.68-.3,1.54-.4,2.32v1.46c.05.63-.14,1.3.4,1.82v3.2c-.89,5.63-.7,11.35-1.35,17-1.62,14.25-5.77,27.84-11,41.13a200.72,200.72,0,0,1-37.57,61.73c-22.94,25.57-50.32,44.84-82.65,56.86a202.18,202.18,0,0,1-33,9.09c-7,1.33-14.25,1.18-21.38,1.73-1,.08-2.13-.34-3.08.4h-7.18c-1.38-.83-2.89-.21-4.33-.4h-5.79c-1.68.2-3.42-.45-5.05.4h-7.18c-5.89-.87-11.85-.8-17.76-1.36-11.17-1-21.94-4-32.5-7.58a200.63,200.63,0,0,1-61.45-33.18C48.09,343.64,26,314.22,12.29,278.54c-5.53-14.46-10-29.24-11.22-44.73A361.14,361.14,0,0,1,.3,191.16c.46-11.59,1.19-23,3.92-34.38a215.15,215.15,0,0,1,20.75-53C36,83.72,50.39,66.39,67.2,51.08A201.31,201.31,0,0,1,121.12,16a196,196,0,0,1,44.8-13.9C173,.82,180.17.94,187.3.39c1-.08,2.13.34,3.08-.39h3.19a1.05,1.05,0,0,0,1.6,0h5.58a16.37,16.37,0,0,0,8,0h5.58a1.05,1.05,0,0,0,1.6,0h3.19c6.16.8,12.39.73,18.56,1.36,12,1.22,23.48,4.41,34.76,8.36a200.91,200.91,0,0,1,58.22,31.71C352,58.21,369.8,78.08,383.3,101.75A202.13,202.13,0,0,1,407,165.41c1.23,6.66,1.19,13.48,1.65,20.23C408.75,186.68,408.34,187.78,409.07,188.73Z"/><path class="cls-2" d="M208.74,0a9.11,9.11,0,0,1-8,0Z"/><path class="cls-1" d="M201.49,408.76H208c.5.27.48.5-.05.69h-6.39Q200.76,409.17,201.49,408.76Z"/><path class="cls-1" d="M201.49,408.76q0,.35.06.69h-4.79C198.16,408,199.9,408.88,201.49,408.76Z"/><path class="cls-1" d="M207.94,409.45c0-.23,0-.46.05-.69,1.34.08,2.82-.66,3.94.69Z"/><path class="cls-1" d="M409.07,196.73c-.86-.64-.78-1.54-.68-2.44.26-.53.49-.51.68,0Z"/><path class="cls-1" d="M408.4,215.16c-.11-.9-.19-1.8.67-2.44v2.4C408.88,215.66,408.66,215.68,408.4,215.16Z"/><path class="cls-3" d="M195.17,0c-.54.89-1.07,1-1.6,0Z"/><path class="cls-3" d="M215.92,0c-.53,1-1.07.89-1.6,0Z"/><path class="cls-1" d="M408.4,192.68c-.07-.64-.19-1.31.67-1.55v1.6C408.81,193.27,408.58,193.26,408.4,192.68Z"/><path class="cls-1" d="M408.4,192.68c.22,0,.45,0,.67,0v1.6l-.68,0C408.39,193.75,408.4,193.22,408.4,192.68Z"/><path class="cls-1" d="M408.4,215.16a4.92,4.92,0,0,0,.67,0v1.6c-.19.55-.41.56-.67,0Z"/><path class="cls-1" d="M408.4,216.76c.22,0,.45,0,.67,0v1.6C408.2,218.08,408.32,217.41,408.4,216.76Z"/><path class="cls-4" d="M173,204.69c-1-1-1.74-1.88-2.56-2.71q-29.62-29.7-59.31-59.32c-2.4-2.37-2.32-3.55,0-5.84,8.8-8.51,17.43-17.21,26-26,2.1-2.17,3.25-2.41,5.54-.09,19.65,19.89,39.48,39.59,59.13,59.48,2.3,2.33,3.43,2.46,5.81.05,19.64-19.9,39.47-39.6,59.14-59.47,2.13-2.16,3.29-2.42,5.54-.09q12.88,13.37,26.23,26.29c2.34,2.26,2.05,3.42-.09,5.55-19.83,19.71-39.5,39.58-59.36,59.26-2.43,2.4-2.24,3.53.07,5.82,19.85,19.69,39.52,39.56,59.36,59.25,2.24,2.23,2.22,3.38,0,5.56-8.79,8.53-17.5,17.15-25.93,26-2.62,2.75-3.84,2.11-6.12-.2-19.48-19.69-39.14-39.19-58.57-58.92-2.67-2.71-4-2.33-6.39.13-19.37,19.61-39,39-58.27,58.65-2.81,2.86-4.14,2.55-6.71-.13-8.38-8.75-17-17.3-25.66-25.74-2.16-2.1-2.13-3.15,0-5.28q29.89-29.69,59.58-59.59C171.27,206.56,172.06,205.68,173,204.69Z"/></g></g></svg>