<svg xmlns="http://www.w3.org/2000/svg" viewBox="0 0 47.89 45.1"><g id="katman_2" data-name="katman 2"><g id="katman_1-2" data-name="katman 1"><path d="M0,2.54a6.53,6.53,0,0,1,.37-.9A2.94,2.94,0,0,1,3,0C4.27,0,5.51,0,6.76,0H36.33a3,3,0,0,1,3.19,2.33,4,4,0,0,1,.09.92q0,6.78,0,13.57c0,.76-.32,1.16-.9,1.17a.88.88,0,0,1-.92-.81,4.34,4.34,0,0,1,0-.51V3.44c0-1.17-.41-1.58-1.57-1.58H26.13v.6c0,3.18-.05,6.37,0,9.55a1.59,1.59,0,0,1-2.54,1.47c-1.12-.74-2.31-1.36-3.46-2.05a.6.6,0,0,0-.68,0c-1.16.69-2.34,1.37-3.51,2.05a1.54,1.54,0,0,1-2.48-1.44V1.88l-.5,0H3.35c-1.09,0-1.5.4-1.5,1.49V36.28c0,1.06.43,1.51,1.45,1.51H23.65l.41,0c0-.14-.07-.26-.11-.37A12.45,12.45,0,1,1,37.22,45,12,12,0,0,1,25.45,40a1,1,0,0,0-.85-.43c-7,0-13.94,0-20.91,0-1.92,0-3.22-.76-3.69-2.58ZM24.84,32.67A10.61,10.61,0,1,0,35.45,22.05,10.61,10.61,0,0,0,24.84,32.67Zm-9.48-21,.44-.24c1.09-.63,2.19-1.24,3.26-1.91a1.31,1.31,0,0,1,1.52,0c1.06.65,2.15,1.26,3.22,1.89l.47.25V1.9H15.36Z"/><path d="M8.53,35.11H5.73a.93.93,0,0,1-1-.9.92.92,0,0,1,1-.94c1.91,0,3.83,0,5.74,0a.9.9,0,0,1,1,.91.94.94,0,0,1-1,.92Z"/><path d="M7.65,31.15c-.64,0-1.28,0-1.92,0a.93.93,0,1,1,0-1.84H9.6a.92.92,0,1,1,0,1.84C9,31.16,8.3,31.15,7.65,31.15Z"/><path d="M35.44,34c-1.26,1.26-2.47,2.5-3.71,3.7a1.31,1.31,0,0,1-.89.37,1.3,1.3,0,0,1-.73-.61.75.75,0,0,1,.21-.93l1.55-1.56,2.3-2.28-1.1-1.07c-.89-.89-1.79-1.78-2.67-2.68a.92.92,0,1,1,1.3-1.29l3.73,3.74.38-.36c1.12-1.12,2.25-2.24,3.37-3.37a1,1,0,0,1,1-.33.91.91,0,0,1,.33,1.55c-.79.82-1.61,1.62-2.41,2.42l-1.39,1.37c.12.14.22.25.33.36,1.14,1.15,2.29,2.29,3.44,3.44.26.27.47.61.27,1a1.24,1.24,0,0,1-.71.63,1.29,1.29,0,0,1-.92-.37c-1.14-1.09-2.24-2.22-3.36-3.33Z"/></g></g></svg>