<svg xmlns="http://www.w3.org/2000/svg" viewBox="0 0 511.81 489.04"><defs><style>.cls-1{fill:#fd9f2c;}.cls-2{fill:#fec56c;}.cls-3{fill:#feb854;}.cls-4{fill:#fdd99a;}.cls-5{fill:#fefefe;}.cls-6{fill:#010101;}</style></defs><g id="katman_2" data-name="katman 2"><g id="katman_1-2" data-name="katman 1"><path d="M0,115.86v-6c.57-3.7,2.64-6.07,5.93-7.93,19-10.71,38.21-21,57.27-31.54,25.47-14.12,51-28,76.55-42.07,15.89-8.74,31.81-17.42,47.69-26.17,6.42-3.53,11.71-2.6,16.84,2,4,3.57,7.61,7.45,11.39,11.21q18,18,36,36c4.08,4.07,4.33,4.08,8.35.07Q281.6,30,303.12,8.4c1.53-1.53,3.07-3.05,4.7-4.48,5.08-4.45,10.28-5.2,16.46-1.79,16.31,9,32.73,17.81,49,27,8.52,4.82,9.71,9.14,6.16,17.22-5.11,5.36-8.87,6.09-15.47,3-9-4.23-17.37-9.61-26.21-14.11-4.63-3-9.68-5.2-14.3-8.17-2.85-1.84-5.1-1.47-7.5,1q-19,19.16-38.17,38.16c-2.22,2.21-2.36,3.67.57,5.3,4.66,2.57,9.31,5.18,14,7.72q49.45,27.06,98.82,54.29c14.56,8,29.2,15.91,43.73,24,2.72,1.51,4.82,1.35,7.1-.95q19-19.12,38.13-38.1c2.89-2.85,1.94-4-1.12-5.73-15.23-8.53-30.75-16.57-45.82-25.38-7.3-4.26-8.6-8.29-5.84-15.74,5.31-6.3,9.58-7.53,16-4q31.41,16.95,62.56,34.36c3.31,1.84,5.33,4.28,5.91,8v6a16.06,16.06,0,0,1-4.31,6.52c-15.93,15.85-31.74,31.81-47.75,47.58-2.6,2.57-2.85,4-.09,6.68,15.68,15.39,31.11,31,46.71,46.5a18.84,18.84,0,0,1,5.44,8.67v6c-1,4.31-4.25,6.45-7.85,8.43Q480.55,259.11,457.12,272c-3.77,2.07-5,4.61-5,8.75.12,30.14-.11,60.28.18,90.42.08,8.52-3,13.78-10.63,17.89Q388.1,418.07,334.81,447.6c-23.91,13.18-47.93,26.15-71.77,39.45a13.8,13.8,0,0,1-14.27,0c-38.1-21.22-76.45-42-114.63-63.07-21.43-11.82-42.78-23.78-64.41-35.22-7.26-3.84-10.25-9-10.18-17.14.24-30,0-59.95.19-89.92,0-4.95-1.45-7.86-5.9-10.27-15.38-8.32-30.67-16.79-46-25.19-3.6-2-6.84-4.12-7.85-8.43v-7a15.62,15.62,0,0,1,3.25-5.47Q28,200.68,52.71,175.94c1.06-1.05,2.06-2.2,3.55-2.6-2-.63-3.21-2.28-4.6-3.67Q28,146,4.3,122.38A16,16,0,0,1,0,115.86Z"/><path class="cls-1" d="M274,93.64c5.13,2.71,10.3,5.35,15.39,8.15q62.76,34.42,125.48,68.9c1.45.79,2.9,1.61,4.4,2.45-.87,1.69-2.56,2.05-3.93,2.81q-77.6,42.63-155.2,85.26c-2.34,1.29-4.28,2.44-7.27.78q-71.35-39.45-142.86-78.64c3.78-4.67,9.54-6.31,14.49-9,40.34-22.25,80.77-44.34,121.1-66.59,7-3.86,14-7.68,21-11.54C268.92,94.91,271.18,93.35,274,93.64Z"/><path class="cls-2" d="M256,348.7c-8.16,2.34-10,4.86-10,13.58,0,32.65,0,65.3,0,98.86L104.16,383.08a17.44,17.44,0,0,1-.83-5.88c0-23.92,0-47.85,0-71.77,0-2.43-.4-5.07,1.78-7l65.61,35.72c5.69,3.1,11.33,6.29,17,9.38,6.81,3.7,10.44,3.2,16-2.36Q228,317,252.2,292.86c1.11-1.12,1.87-2.8,3.75-3,2.87,8.1,1.32,16.38,1,24.6-.67,2.24-2.83,2.59-4.53,3.53-6.44,3.55-6.74,10.72-.65,14.86,1.75,1.19,4.13,1.54,5,3.83C257.41,340.76,258.3,344.85,256,348.7Z"/><path class="cls-3" d="M294.05,327.62c4.4,4.28,8.84,8.53,13.21,12.85,6.56,6.47,9.62,6.95,17.59,2.58l100.5-55.17c1.57-.86,3.19-1.62,4.74-2.41,1.18,1.17.69,2.39.69,3.45q0,38.7,0,77.4c0,2.31.15,4.22-2.6,5.72Q361,408.61,294,445.46c-2-1.81-1.7-4.25-1.7-6.53q-.07-52.41,0-104.8C292.3,331.85,292,329.4,294.05,327.62Z"/><path class="cls-4" d="M413.55,63.77c4.25,3.69,9.22,6.13,14.37,8.26-1.84,7.9-.5,10.87,6.86,14.94,15.56,8.59,31.07,17.27,46.75,25.63,3.55,1.9,3.2,2.91.67,5.39q-20.46,20.14-40.62,40.59c-1.73,1.75-3,2.41-5.43,1q-71.77-39.58-143.64-79a3.2,3.2,0,0,1-.67-.7c.26-1.8,1.67-2.82,2.82-4q19.53-19.57,39.1-39.12c1.18-1.17,2.31-2.41,4-2.81l25.14,13.54c7,3.76,10.18,3.41,15.92-1.77l16.67,9c1.32,1,.65,2.44.62,3.67a8.5,8.5,0,0,0,4.74,8.08c3.07,1.72,6,1.12,8.79-.92C410.83,64.79,411.86,63.57,413.55,63.77Z"/><path class="cls-4" d="M89,195q42.39,23.16,84.8,46.33,32.55,17.82,65.07,35.72c-.5,1.92-2,2.79-3.14,3.92-13.28,13.33-26.62,26.59-39.86,40-1.86,1.87-3.17,2.61-5.88,1.11Q116.91,281.7,43.68,241.62a3.71,3.71,0,0,1-.68-.69c.18-1.85,1.6-2.87,2.75-4q19.56-19.62,39.18-39.2C86.11,196.52,87.28,195.32,89,195Z"/><path class="cls-4" d="M290.75,267.56c19.6-10.88,39.16-21.81,58.79-32.63,28.38-15.65,56.84-31.14,85.16-46.89,3.41-1.89,5.22-1.53,7.89,1.21,13,13.35,26.28,26.48,39.54,39.6,2.26,2.22,3.43,3.25-.46,5.37q-71.78,39.14-143.38,78.63c-.71.39-1.5.65-2.25,1-2-.29-3.1-1.82-4.38-3.08q-19-18.94-37.9-38C292.35,271.37,290.06,270.26,290.75,267.56Z"/><path class="cls-4" d="M47,103.79q34.41-19,68.81-38.07c24.43-13.46,48.93-26.8,73.3-40.37,3.05-1.7,4.71-1.48,7.14,1Q216.37,46.86,236.85,67c2.11,2.09,2.17,2.91-.58,4.41Q165,110.37,93.91,149.5a3.92,3.92,0,0,1-.94.24c-1.89-.45-3.11-1.85-4.4-3.14q-19.23-19.2-38.43-38.45C48.87,106.88,47.28,105.8,47,103.79Z"/><path class="cls-5" d="M294.05,327.62,294,445.46,265.9,461.15v-5.34q0-47,0-93.95c0-8.25-2-10.8-9.95-13.16V335.88c.59-1.34,1.9-1.73,3.05-2.33,3.32-1.72,5.39-4.42,5.41-8.17s-2.23-6.34-5.71-7.82c-1-.44-2.18-.8-2.74-1.94q0-12.87,0-25.75c6,4.45,10.78,10.2,16.07,15.4C279.47,312.61,286.71,320.16,294.05,327.62Z"/><path class="cls-5" d="M274,93.64q-79.76,43.77-159.53,87.52c-1.45.8-3,1.46-4.46,2.19l-18.12-9.79c1.63-1,2.74-1.7,3.91-2.33q78-42.81,155.88-85.68c3.22-1.78,5.57-1.79,8.58.14C264.74,88.55,269.45,91,274,93.64Z"/><path class="cls-5" d="M105.15,298.45q-.09,39.42-.19,78.85c0,1.93.6,4-.8,5.78-7-3.78-14-7.58-21-11.32A3.42,3.42,0,0,1,81,368.37c.06-27.54,0-55.08,0-83.56Z"/><path class="cls-5" d="M47,103.79q23.43,22.51,45.95,46c-6,3.41-12.14,6.74-18.11,10.26-1.67,1-2.6.6-3.82-.62Q49.8,138.05,28.45,116.8c-1.8-1.78-1.3-2.51.63-3.5C35.09,110.19,41,107,47,103.79Z"/><path class="cls-5" d="M337.79,34l-46,45.91L272.3,69.65c15.12-15.1,29.8-29.73,44.43-44.4,1.33-1.34,2.41-1.89,4.27-.78C326.53,27.76,332.18,30.85,337.79,34Z"/><path class="cls-5" d="M290.75,267.56q20,20.2,39.91,40.41c1.86,1.89,3.59,3.9,5.38,5.85-5,2.86-10.07,5.7-15.07,8.61-1.48.87-2.58.91-3.91-.43-14.77-14.85-29.59-29.64-44.75-44.81Z"/><path class="cls-5" d="M89,195q-22.54,23.44-46,46l-16.66-8.74c6-6,11.65-11.57,17.26-17.17,8.8-8.78,17.64-17.52,26.33-26.42,2-2,3.5-2.78,6.19-1C80.25,190.28,84.69,192.52,89,195Z"/><path class="cls-6" d="M256,315.62c6.56,1.6,9.89,5,9.88,10.09,0,4.91-3.27,8.26-9.89,10.17-8.66-1.16-11.59-8.83-9-14.24C248.73,317.83,252,316.18,256,315.62Z"/></g></g></svg>