<svg xmlns="http://www.w3.org/2000/svg" fill='currentColor' viewBox="0 0 512 512"><g id="katman_2" data-name="katman 2"><g id="katman_1-2" data-name="katman 1"><path d="M0,263V249c3-14.94,12.67-25.41,23.07-35.77q95.15-94.66,189.82-189.81C223.35,12.91,233.86,3,249,0h14C278,3,288.39,12.68,298.73,23.07q95,95.46,190.48,190.46C499.77,224,509.38,234.73,512,250v12a14.36,14.36,0,0,0-.86,2.28c-4.63,23.2-23,38.51-46.54,38.79-2.42,0-4.83,0-7.53,0v6.74c0,49.47.13,98.93-.12,148.39-.12,23.46-16.08,44.24-38.44,51.19-3.14,1-6.34,1.74-9.51,2.61H317c-8.86-3.3-12-9.8-11.94-19.06.24-38.12.13-76.24.09-114.36,0-17-10.34-27.26-27.43-27.32-14.15-.05-28.3,0-42.45,0-18.49,0-28.46,9.91-28.47,28.28,0,37.79-.14,75.58.09,113.37.06,9.24-3,15.78-11.89,19.1H103a4.25,4.25,0,0,0-1.27-.71c-23.88-3-47.45-25.15-47-57.58.66-48.14.17-96.29.17-144.44v-6.22c-3.49,0-6.3.13-9.1,0-18.32-.94-31.95-9.52-40.55-25.65C2.87,272.92,1.72,267.81,0,263Z"/></g></g></svg>