<svg xmlns="http://www.w3.org/2000/svg" viewBox="0 0 288.65 383.16"><defs><style>.cls-1{fill:#eeecee;}.cls-2{fill:#fdd302;}.cls-3{fill:#b87f7f;}.cls-4{fill:#d6cfd5;}.cls-5{fill:#f9c500;}.cls-6{fill:#ad6c6c;}</style></defs><g id="katman_2" data-name="katman 2"><g id="katman_1-2" data-name="katman 1"><path d="M23.56,383.16c-1.22-1.19-2.94-1.1-4.42-1.64A28.91,28.91,0,0,1,.37,349.44c2-13,13.82-23.21,27.44-23.78,7.12-.3,7.17-.3,7.11-7.54-.11-15.08-.35-30.18,4-44.86q15.84-53,67.45-73.36c5.92-2.33,8.33-6.63,6.31-11.48-1.2-2.89-3.65-4.16-6.44-5.22a108.82,108.82,0,0,1-52.85-41.69A105.33,105.33,0,0,1,36.14,96.26c-.63-4.61.18-6,4.66-8,3.67-.73,6.09.84,7.23,5,1,3.61,1.29,7.37,2.29,11,4.1,15,2.69,12,15.48,12.07,35.85.15,71.71,0,107.56,0,1.63,0,3.25,0,4.87.07,4.14.3,5.52,1.49,6.75,5.67-.28,5-2.45,7.25-7.31,7.64-1.62.13-3.25.07-4.87.07H66c-.88,0-1.75,0-2.63,0-2-.08-2.48.64-1.35,2.39A94.21,94.21,0,0,0,70,143c10.13,11.43,21.7,20.95,36,26.84a36,36,0,0,0,7.52,2.2c11.19,2,19.16,8,23.47,18.67,2.79,7.71,1.6,15.45.19,23.19-.29,1.59-.59,3.18-.85,4.77-.81,4.67-1.39,9.37-2.37,14-3.12,14.62-14.13,23.83-29.15,24.32-4.5.15-9,0-13.5.05-21,.15-40.18,16.9-43.33,37.6-1.34,8.82-.58,17.67-.79,26.51,0,2.15.91,3.25,3.12,3.24,1.25,0,2.5,0,3.75,0H178.12a40.5,40.5,0,0,1,5.62.16c3.85.54,5.74,2.46,6.51,6.52-.71,4.5-2.69,6.43-7,6.77-1.75.13-3.5.07-5.25.07H33.34a34.57,34.57,0,0,0-7.46.46c-8.66,1.88-13.7,8.74-13.06,17.78.55,7.86,7.09,14,15.5,14.5,1.87.12,3.75.06,5.62.06q109.25,0,218.47,0a62.48,62.48,0,0,0,8.21,0c7.93-.52,14.46-6.58,15.18-14,.88-9-3.66-15.9-11.92-18.22a24.9,24.9,0,0,0-6.66-.75c-16.57-.17-33.14.09-49.71-.12-3.57-.77-5.24-3.15-5.64-6.62,1-4.62,2.93-6.44,7.59-6.61,5.1-.18,10.21-.13,15.32,0,4.48,0,9,0,13.47,0,2.18,0,3.24-.92,3.18-3.13-.24-8.7.52-17.41-.71-26.1-2.78-19.69-20.16-36.41-40-38.25a16.37,16.37,0,0,0-2.62,0c-6.68-.29-13.38.58-20-.76A30.23,30.23,0,0,1,165.9,251,24.73,24.73,0,0,1,156,237.27c-3-11.57-5.43-23.37-5.86-35.33-.56-15.28,8.31-26.29,23.33-29.43,13-2.73,23.82-9.51,33.63-17.93a92,92,0,0,0,17.71-19.72,23.25,23.25,0,0,0,2.87-5.1c-5.14-.1-10,0-14.93,0a68,68,0,0,1-9.36-.13c-4.24-.52-6-2.29-6.79-6.64.53-3.54,2.29-5.94,6-6.48q13.29-.08,26.6-.2c4.93,0,5.31-.32,6.92-5.07a103.07,103.07,0,0,0,5-28.64c.31-6.47.11-13,.05-19.45,0-3.85-.46-4.19-4.37-4.32-.88,0-1.75,0-2.63,0q-89.94,0-179.9,0c-8.19,0-7,.56-7.2,6.88-.06,1.61,0,3.24-.18,4.85-1.66,4.76-2.94,5.42-8.43,4.38C35.15,73.11,34.78,70,34.9,66.6c.11-2.85,1-6.39-.39-8.38s-5.09-.49-7.78-.74C11.09,56.06-.63,43.07,0,27.8A28.57,28.57,0,0,1,29,0Q144.3,0,259.55,0a28.64,28.64,0,0,1,29,28.55c.13,16-12.66,28.7-29.05,29-5.9.09-5.91.09-5.9,6.12,0,14.82.5,29.68-3.51,44.19q-14.76,53.43-66,74.61c-4.45,1.84-8.88,3.46-8.86,9.16s4.45,7.33,8.94,9.07c41.75,16.26,69.1,56.36,69.46,101.68.05,6.23.24,12.48-.08,18.7-.18,3.65.65,4.89,4.56,4.66a27.54,27.54,0,0,1,22,8.41c7.92,8.09,10.39,17.86,7.16,28.58-3.19,10.57-10.58,17.21-21.47,19.75-.57.13-1.27-.05-1.57.69Z"/><path class="cls-1" d="M184.35,122.88c-1.28-4.65-2.45-5.51-7.8-5.51q-59.67,0-119.34.07c-2.93,0-4.4-.64-5.31-3.62a118.2,118.2,0,0,1-4.46-18.06c-.76-5.42-1.87-6.61-6.64-7.5,0-3.09-.16-6.2.06-9.28a3.71,3.71,0,0,0-2.29-4.06c3.44.55,6.14-.37,7.56-3.82a4.19,4.19,0,0,0,.29-2.56c-.16-1.91.84-2.72,2.57-2.94a25.27,25.27,0,0,1,3.37-.16q78.68,0,157.34,0c7.12,0,12.29,2.93,15.4,9.23,2.13,4.33,1.47,9.08,1.21,13.64a96.42,96.42,0,0,1-4.54,24.19c-1.43,4.43-1.79,4.59-6.32,4.66s-9-.32-13.45.24a6.32,6.32,0,0,0-4.6,5.5A18.45,18.45,0,0,1,184.35,122.88Z"/><path class="cls-2" d="M225.24,325.48l-15.31.15c-4.65.05-6.06,1.17-7.29,5.74-4.42,1.91-8.8,2.18-13.13-.24-1.27-4.51-2.66-5.5-7.89-5.5q-65.6,0-131.19.07c-3.32,0-4.53-.67-4.33-4.22.57-9.93-.88-20,1.37-29.81a46.57,46.57,0,0,1,43.88-35.85c5.87-.16,11.75.43,17.59-.41,12.78-1.84,22-10.89,24.11-23.64.73-4.42,1.56-8.83,2.34-13.24,2.12-.65,2.14,1.1,2.43,2.28.8,3.13,1.11,6.37,1.72,9.54,2.27,11.75,9.77,18.17,21.72,18.59a10.92,10.92,0,0,1,4.67,1.05c6.9,4.95,14.73,6.21,23,5.85,3.1-.13,6.22.11,9.32.18,6.3,2,11,6.35,15.09,11.23,8.68,10.39,13.57,22.23,13,36.05-.25,5.85,0,11.71,0,17.56C226.26,322.46,226.47,324.14,225.24,325.48Z"/><path class="cls-3" d="M189.51,331.13c4.36.58,8.75.18,13.13.24a6.43,6.43,0,0,0,4.63,5.49c6.34.65,12.69.2,19,.27q12.34.14,24.7,0a6.33,6.33,0,0,1,5.68,2.83c6.47,8.84,6.51,20.47,0,28.87a8.48,8.48,0,0,1-3.72,3c-1,.05-2,.13-3,.13H30c-11.1,0-18.95-7.59-18.71-17.95.23-9.62,7.75-17,17.69-17.1,10.49-.11,21,0,31.48,0H181.89C187.06,336.85,188.47,335.76,189.51,331.13Z"/><path class="cls-3" d="M25.62,45.76A16.9,16.9,0,0,1,11.3,28,17.5,17.5,0,0,1,27.41,11.29c.87-.06,1.74,0,2.62,0H250c1,0,2,.08,3,.12a9.44,9.44,0,0,1,3.38,2.26c7,8,6.91,22.48-.26,30.44a5.26,5.26,0,0,1-4.25,2c-.88,0-1.75,0-2.63,0Q139.46,46,29.7,46A11.21,11.21,0,0,1,25.62,45.76Z"/><path class="cls-2" d="M184.35,122.88H197.4c1.26,4.53,2.69,5.65,7.3,5.72l8.55.17c1.08,1.61-.05,2.89-.77,4.1-11.15,18.67-26.06,33.18-46.12,42.27-5.16,2.34-10.2,4.42-15.84,5.29-5.07.79-8.55,4.36-11.77,8.11-.76.89-1,2.39-2.65,2.29-5-10.69-13.29-16.07-25-18.21-9.56-1.75-17.8-7.58-25.6-13.46A96.12,96.12,0,0,1,59,129.07c1.49-.83,2.87-.46,4.17-.46q56.71,0,113.43,0C181.7,128.59,183.18,127.46,184.35,122.88Z"/><path class="cls-4" d="M202,117.37c4.37-1.49,8.87-.51,13.29-.57,2.79,0,4.21-.74,5.07-3.57,3.12-10.4,5.09-20.93,4.92-31.84-.14-8.91-5.85-14.77-14.71-14.77H115.08c-20.72,0-41.44.08-62.15-.07-3.64,0-6.52.08-6.8,4.56,0-3.73.11-7.47,0-11.21,0-1.75.47-2.57,2.3-2.36a21.1,21.1,0,0,0,2.25,0q93.63,0,187.26-.08c3.55,0,4.59.74,4.5,4.42-.32,14.05.66,28.17-2.93,42-1.12,4.33-1.4,9.63-4.36,12.48s-8.3.83-12.58,1C215.73,117.51,208.86,117.37,202,117.37Z"/><path class="cls-5" d="M136.1,190.82c4.44-6.91,10.17-11.25,18.87-12.21,6.91-.75,13-4.81,19-8.29,15.83-9.15,28.14-21.88,37.53-37.48a31.46,31.46,0,0,0,1.74-4.08h16.36a86.9,86.9,0,0,1-13.94,19.12A97.13,97.13,0,0,1,182.52,171a30.63,30.63,0,0,1-7.48,2.16c-16.29,2.55-26.48,16.74-23.83,33q2.11,13.08,4.37,26.13c1.22,7.17,4.95,12.9,10.35,17.65-4.91-.23-9.76.34-14.56-2-8-3.86-11.72-10.26-13.08-18.55-.52-3.15-1-6.3-1.52-9.47a1.5,1.5,0,0,0-1.38-1.46c.57-3.77,1.06-7.55,1.74-11.3A34.43,34.43,0,0,0,136.1,190.82Z"/><path class="cls-1" d="M124.79,193.86c2.06,3.92,1.91,7.53,1.34,11.1q-2,12.53-4.25,25c-1.63,9.11-8.09,14.42-17.55,14.6-8,.15-16-.51-23.87,1.29a61.86,61.86,0,0,0-21.34,9.43c-.75-1.16.21-1.8.58-2.42,11.64-19.49,28-33.56,49.15-41.86C118.67,207.18,121.59,204.21,124.79,193.86Z"/><path class="cls-5" d="M225.24,325.48c0-7.72,0-15.44,0-23.17.09-18.92-8.36-33.26-23.65-43.94L198.26,256c18.85-.33,37.75,15.19,42.7,35.13,2.29,9.2,1.21,18.59,1.38,27.89.13,6.59,0,6.61-6.63,6.59C232.22,325.61,228.73,325.53,225.24,325.48Z"/><path class="cls-1" d="M208,245.67c-7.64-1.39-15.36-1-23.06-1.09-10.33-.05-16.52-5.12-18.34-15.26-1.31-7.31-2.34-14.67-3.5-22,1.05-.52,1.95,0,2.84.44a101,101,0,0,1,41.43,34.6C208,243.33,209.05,244.32,208,245.67Z"/><path class="cls-6" d="M25.62,45.76c1.87,0,3.74-.1,5.61-.1H247.07c7,0,9.54-1.81,11.9-8.56,3.44-9.83,1-18.3-6-25.72,3.61-.11,7.23-.51,10.8.39,9,2.27,14.28,9.89,13.3,19.32-.85,8.26-8.06,14.85-16.79,15.21-3.62.15-7.24.08-10.86.08q-109.17,0-218.33,0C29.27,46.35,27.36,46.79,25.62,45.76Z"/><path class="cls-4" d="M208,245.67c-2.11-5.27-6.09-9.2-9.77-13.29a102.85,102.85,0,0,0-35.13-25.06,19.9,19.9,0,0,1,.53-13.7c1,2.66,1.57,4.73,2.47,6.65,2.67,5.7,7.65,8.52,13.28,10.67,21.12,8.06,37.33,22,49,41.2a5.1,5.1,0,0,1,1.27,3.42C222.91,250.63,215.61,247.74,208,245.67Z"/><path class="cls-6" d="M253,371.8c6.52-7.22,9.4-15.29,6.23-25-1-3.05-3-5.4-4.66-8-1-1.63-2.84-1.28-4.44-1.29-13,0-26,0-38.92,0-1.32,0-2.77.46-3.93-.64,17.45,0,34.91-.08,52.36,0a17.31,17.31,0,0,1,17.6,17.49c0,9.82-7.5,17.38-17.52,17.55C257.47,372,255.23,371.85,253,371.8Z"/></g></g></svg>