<svg xmlns="http://www.w3.org/2000/svg" fill='currentColor' viewBox="0 0 342.7 384"><g id="katman_2" data-name="katman 2"><g id="katman_1-2" data-name="katman 1"><path d="M132.46,384H121.23c-6.7-2.85-13.75-5.08-20-8.65-25.92-14.66-51.51-29.92-77.45-44.58C7.6,321.66,0,308.28,0,289.76c.17-60.85.06-121.71.07-182.57,0-21.36-.09-42.73,0-64.1C.18,26.51,7.22,13.63,21.7,5.44c4.55-2.58,9.94-3.67,15-5.44H234.26a6,6,0,0,0,1.32.6c20.9,4,34.86,20.16,35.18,41.39q.39,26.06-.09,52.11a18.12,18.12,0,0,1-3.18,9.3c-3.24,4.79-9.65,6.27-15.09,4.33-5.59-2-9.09-7.15-9.1-13.71,0-17,0-34,0-51,0-9.63-5.74-15.44-15.33-15.45q-79.32,0-158.64,0A30.38,30.38,0,0,0,66,28l3.54,2.09c25,14.48,49.94,29.17,75.13,43.37,16.37,9.24,24.1,22.68,24,41.6-.3,58.48-.11,117-.11,175.44v4.75c1.48.08,2.35.17,3.21.17,18.59,0,37.17,0,55.75,0,9.93,0,15.73-5.92,15.74-15.92,0-14.75,0-29.49,0-44.24,0-8.22,5.89-14.3,13.61-14.37s13.8,5.91,13.86,14.14c.13,15.37.29,30.75,0,46.11-.5,23.25-17.42,40.76-40.65,41.5-18.94.61-37.91.18-56.86.22h-4.68c0,6.93.1,13.29,0,19.64-.34,18-10.39,32.33-27.26,38.77C138.4,382.33,135.4,383.09,132.46,384Z"/><path d="M294.56,175.17h-4.37q-47,0-93.91,0c-9,0-15-5.09-15.34-12.94s5.35-14.36,13.35-14.47c11.1-.15,22.2-.05,33.3-.06H296c-5.41-5.38-10.26-9.82-14.61-14.69a18.63,18.63,0,0,1-4.31-8,13,13,0,0,1,7.08-14.38,13.49,13.49,0,0,1,15.61,2.21c3.48,3.22,6.76,6.67,10.11,10q13.89,13.92,27.77,27.85c6.77,6.82,6.79,14.63.06,21.39-12.5,12.57-25,25.16-37.59,37.62a13.47,13.47,0,0,1-19.19.22c-5.49-5.33-5.6-13.7-.25-19.53,1.1-1.2,2.27-2.32,3.42-3.46L295,176.22Z"/></g></g></svg>