<svg xmlns="http://www.w3.org/2000/svg" fill='currentColor' viewBox="0 0 356.8 409.6"><g id="katman_2" data-name="katman 2"><g id="katman_1-2" data-name="katman 1"><path d="M332.8,409.6H24C4.86,402.55,0,395.48,0,374.72v-249H356.78V244q0,67.59,0,135.17c0,8.18-2.18,15.47-7.81,21.6C344.58,405.52,338.8,407.74,332.8,409.6ZM162.32,269.66c-6.71-6.71-13-13.26-19.57-19.41a18.67,18.67,0,0,0-8.16-4.46c-5-1.13-9.86,1.88-12.12,6.47a12,12,0,0,0,2.55,14c8.88,9,17.87,17.92,26.82,26.86,7.45,7.45,13.49,7.45,20.93,0Q201.89,264,231,234.91a35.79,35.79,0,0,0,2.47-2.61,12,12,0,0,0-.7-16.32,11.89,11.89,0,0,0-16.3-.35c-2,1.73-3.84,3.69-5.73,5.57Z"/><path d="M167.19,0c-.13,1.71-.38,3.42-.38,5.13q0,45.57,0,91.13v4.87H8.9c.89-1.65,1.52-2.91,2.22-4.13C26.27,70.71,41.61,44.52,56.47,18.07,61.15,9.75,66.57,2.89,76,0Z"/><path d="M280.8,0c9.29,2.82,14.71,9.52,19.34,17.73,15,26.56,30.43,52.86,45.69,79.26.71,1.22,1.36,2.48,2.39,4.37h-4.85c-49.2,0-98.4,0-147.59.11-4.17,0-5.05-1.18-5-5.14.16-30.66.08-61.32.1-92,0-1.45.22-2.9.34-4.35Z"/></g></g></svg>