<svg xmlns="http://www.w3.org/2000/svg" viewBox="0 0 367.5 383.83"><defs><style>.cls-1{fill:#0181fb;}.cls-2{fill:#f9c500;}.cls-3{fill:#0172fa;}.cls-4{fill:#facb1a;}.cls-5{fill:#fbde70;}.cls-6{fill:#fce280;}.cls-7{fill:#f2effe;}.cls-8{fill:#e1ddfe;}.cls-9{fill:#fbe25b;}.cls-10{fill:#67c945;}.cls-11{fill:#fcfdfe;}.cls-12{fill:#fa4756;}.cls-13{fill:#b2d9fd;}.cls-14{fill:#fd646f;}.cls-15{fill:#fc4755;}.cls-16{fill:#9082af;}.cls-17{fill:#89c8fd;}.cls-18{fill:#b4acd4;}.cls-19{fill:#b4add4;}.cls-20{fill:#cec9e3;}.cls-21{fill:#fefefe;}.cls-22{fill:#fd6570;}</style></defs><g id="katman_2" data-name="katman 2"><g id="katman_1-2" data-name="katman 1"><path class="cls-1" d="M331.47,0c6.44,3,8.66,8,8.35,15-.41,9-.13,17.92-.14,26.88-1.75,1.64-4,1.3-6.05,1.3-13.74,0-27.48,0-41.22,0q-110.52,0-221.06,0c-2.47,0-5,.43-7.35-.84A4.09,4.09,0,0,1,62.69,39c0-4.84-.4-9.68.23-14.5,1.13-2.88,2.83-.72,4.25-.4,2.7.62,5.17-.66,5.83-3.19a4.57,4.57,0,0,0-3-5.32,5.24,5.24,0,0,0-3.61.35c-1,.37-1.91,1.38-3,.28Q60.28,3.82,72,0Z"/><path class="cls-2" d="M168,383.83c-4-1.76-8.43-1.49-12.64-2.19-28.12-4.63-54-14.63-77.16-31.45,2-1.89,4.47-1.29,6.77-1.29q55.86-.06,111.72,0,43.11,0,86.22,0c2.19,0,4.56-.52,6.41,1.29C276.37,359.94,262,367,246.87,372.66A183.15,183.15,0,0,1,201,383.05c-.8.08-1.81-.33-2.27.78h-3a1,1,0,0,0-1.5,0h-4.5a5.76,5.76,0,0,0-4.5,0h-3a7.64,7.64,0,0,0-5.25,0h-3a1,1,0,0,0-1.5,0Z"/><path class="cls-3" d="M63.83,23.11l-.09,18.76-.51.54a2.78,2.78,0,0,1-1,.43c-10.69.64-21.38.36-32.07.15a3.39,3.39,0,0,1-2.31-1.1c0-9.35.22-18.71-.14-28C27.44,7.16,29.88,2.58,36,0H72c-1.73,1.9-4.51,2.18-6.13,4.52-2.65,3.84-2,8-2.06,12.1A13,13,0,0,1,63.83,23.11Z"/><path class="cls-4" d="M177,383.83a4.34,4.34,0,0,1,5.25,0Z"/><path class="cls-4" d="M185.25,383.83a3.4,3.4,0,0,1,4.5,0Z"/><path class="cls-5" d="M172.5,383.83c.5-.9,1-.81,1.5,0Z"/><path class="cls-6" d="M194.25,383.83c.5-.82,1-.93,1.5,0Z"/><path class="cls-7" d="M289.32,350.18c-10,0-20-.08-29.94-.08q-88.17,0-176.32,0c-1.62,0-3.24.06-4.86.09-5.6-3.06-10-7.65-15.17-11.36a52.19,52.19,0,0,1-.48-9.68q0-139.74,0-279.49c0-2.55-.68-5.29,1.24-7.56l-.08-.23c1,0,2,.11,3,.11H337.07c.87,0,1.74-.06,2.61-.09l.15,61.84a22.45,22.45,0,0,1,1.13,7.72q0,88.73,0,177.43a22.38,22.38,0,0,1-1.13,7.72c-4.55,8.35-10.47,15.73-16.51,23a179.59,179.59,0,0,1-30.84,28.62C291.49,349,290.38,349.52,289.32,350.18Z"/><path class="cls-2" d="M339.83,296.6c0-1.62-.11-3.24-.11-4.86V108.59c0-1.62.08-3.24.11-4.86A160.28,160.28,0,0,1,361,152.11q19.56,75.4-19.87,142.74A18.64,18.64,0,0,1,339.83,296.6Z"/><path class="cls-8" d="M63.82,42.1q0,71.52,0,143.05,0,74.54,0,149c0,1.55.64,3.27-.71,4.63-4.35-4.22-8.92-8.24-13-12.7-8.38-9.12-16.38-18.56-22.35-29.52a22.71,22.71,0,0,1-1.13-7.73q0-88.71,0-177.43a22.71,22.71,0,0,1,1.13-7.73q.07-30.91.16-61.83Z"/><path class="cls-2" d="M27.67,103.72V296.61A163.1,163.1,0,0,1,5.82,245.7q-18-73.17,19.56-138.61C26.05,105.91,26.9,104.84,27.67,103.72Z"/><path class="cls-9" d="M63.83,23.11a7.3,7.3,0,0,1,0-6.49,16.25,16.25,0,0,1,2.72-1.87c2.64-1.17,4.92-.35,6.59,1.83a5.09,5.09,0,0,1,0,6.56c-1.67,2.18-4,3-6.59,1.84A16.87,16.87,0,0,1,63.83,23.11Z"/><path class="cls-10" d="M90.74,20a5.6,5.6,0,1,1-5.24-5.75A5.66,5.66,0,0,1,90.74,20Z"/><path class="cls-11" d="M314.6,14.26a5.61,5.61,0,1,1-5.6,5.41A5.68,5.68,0,0,1,314.6,14.26Z"/><path class="cls-12" d="M57.76,19.91a5.61,5.61,0,1,1-5.38-5.64A5.67,5.67,0,0,1,57.76,19.91Z"/><path class="cls-13" d="M191.14,137.86c4.49,0,9,0,13.48.07s6.25,2.25,4.81,6.45c-6.71,19.55-13.55,39.05-20.23,58.61-.92,2.71-2.62,3.25-5.11,3.23-10.86-.06-21.73.18-32.59-.07-15.34-.36-30.65,1.12-46,.74-1.44,0-3,.51-4.29-.68,1.16-1.29,2.73-1,4.19-1.05,4.35-.06,8.71-.09,13.06,0,2.26,0,3.27-.39,2.31-2.95-5-13.28-9.28-26.8-14.09-40.14-1.14-3.16-2.2-6.34-3.24-9.54-.42-1.28-1-2.6-.19-4,1.56-.86,2.28.44,3.07,1.29,14.41,15.24,31.73,20.38,52.07,15.07,13.3-4,23.2-12.27,30.1-24.25C189.15,139.57,189.4,138,191.14,137.86Z"/><path class="cls-14" d="M191.14,137.86c-6,11.54-14.36,20.63-26.54,25.79-1.82.77-3.74,1.33-5.61,2a27.78,27.78,0,0,1-11.12-4.94C140,155.14,133,148.8,129.28,139.53a5,5,0,0,1,1.89-3.12c3.24-3.29,6.47-6.59,9.8-9.79,2.83-2.7,4.21-2.77,6.91.14,3,3.2,6,6.31,9.07,9.44a10.29,10.29,0,0,0,3.22,2.5,4.2,4.2,0,0,0,5.14-.94,4.28,4.28,0,0,0,.85-5.17,15.19,15.19,0,0,0-3-3.82c-3.17-3.19-6.32-6.39-9.54-9.52-1.95-1.9-1.86-3.52,0-5.39,3.65-3.59,7.29-7.18,10.84-10.87,1.6-1.66,3-3.48,1.7-6-1.65-3.18-4.83-3.65-7.81-1-3.51,3.18-6.73,6.67-10.11,10-3.74,3.68-4.09,3.68-7.79,0-3.47-3.42-6.84-6.93-10.37-10.28-.62-.59-1.4-1.11-1.31-2.14a54.44,54.44,0,0,1,24.54-24.05,36.41,36.41,0,0,1,5.58-2c22.17,7.59,35.1,24.29,36.52,47.69C195.94,123.11,193.92,130.6,191.14,137.86Z"/><path class="cls-14" d="M119.08,278c1.3-.66,2.7-.39,4.06-.38q62.21.18,124.43.4c11.76,0,20.17,8,20.14,19.06,0,10.84-8.7,19.13-20.22,19.15q-63.92.12-127.82.13c-1.47,0-3,.34-4.36-.63,1.1-1.37,2.68-1.18,4.15-1.19,8.86-.05,17.72,0,26.59,0a8.39,8.39,0,0,1,3.66.54c-4.18-1-7.24-4.47-9.53-8.68-.65-1.2-1.71-2.61-.22-4,2-.95,4.17-.67,6.28-.68h86.22c2,0,4,.18,5.94-.53,2.08-.77,3.36-2.17,3.1-4.54-.24-2.19-1.62-3.26-3.7-3.58a34,34,0,0,0-5.24-.2q-48.74,0-97.48,0c-2.1,0-4.26.26-6.28-.62-1.2-.88-.48-1.48.37-1.87a9.37,9.37,0,0,1,4.8-.49,6.63,6.63,0,0,0,7.07-3.65,15.59,15.59,0,0,1,9.72-7.65c.42-.21-.32-.58,0-.18.11.15,0,.24-.19.32a19.23,19.23,0,0,1-6,.56c-6.87,0-13.74,0-20.61,0C122.29,279.18,120.44,279.55,119.08,278Z"/><path class="cls-15" d="M129.74,139.32c6,11.19,14.47,19.75,26.41,24.61a21.75,21.75,0,0,1,2.84,1.7c-17.07,5.18-32.53,1.86-46.67-8.73-3.29-2.46-5.75-5.75-8.85-8.39a16.89,16.89,0,0,1-6.13-10.69c-12.45-29.37,2.76-59.23,28.66-69A49.5,49.5,0,0,1,159,67.63c-3.23,1.8-6.52,3.5-9.68,5.4A47.56,47.56,0,0,0,130.9,92.18c-.42.82-.9,1.5-1.92,1.55-.95.88-2.14.3-3.2.52-3.67.78-5.07,4.33-2.8,7.35,1.17,1.57,2.87,2.77,3.19,4.9a102.94,102.94,0,0,0,0,20.09c-.22,1.7-1.33,2.88-2.41,4.09-1.48,1.66-2.51,3.47-1.4,5.72s3.16,3,5.61,2.58A2.09,2.09,0,0,1,129.74,139.32Z"/><path class="cls-16" d="M165.71,227.93l-28.39,0c-3.88,2.09-8.06.72-12.09,1.06-3.74,0-7.47.12-11.2,0-1.59,0-3.28.16-4.58-1.13-1.74,0-3.49,0-5.24-.07-3.84-.18-6.27-2.34-6.32-5.55-.06-3.44,2.38-5.67,6.45-5.67,29,0,57.94-.09,86.91.09,3.55,0,4.95-1.13,6.05-4.33,9.84-28.77,19.85-57.49,29.81-86.23,1.93-5.57,2.83-6.23,8.62-6.23,7.74,0,15.49,0,23.23,0,4.4,0,6.92,2.1,6.92,5.62s-2.52,5.58-6.93,5.6c-6,0-12,.17-18-.06-2.84-.1-4.07.77-5,3.54-8,23.48-16.17,46.9-24.29,70.33-1.88,5.42-3.73,10.85-5.59,16.27-2,5.93-3,6.59-9.14,6.63-1.13,0-2.25.06-3.37.1-3.88,2.07-8.06.72-12.1,1-3.73,0-7.46.12-11.19,0C168.68,229,167,229.23,165.71,227.93Z"/><path class="cls-17" d="M97.34,137.82q3.07,5.34,6.13,10.69c3,11.28,7.49,22.07,11.1,33.14,2.65,8.12,5.65,16.11,8.64,24.55h-22c-1.88-.3-2.59-1.65-3.15-3.29-6.71-19.43-13.48-38.83-20.17-58.27-1.53-4.44.15-6.71,4.83-6.76C87.6,137.81,92.47,137.84,97.34,137.82Z"/><path class="cls-15" d="M139.5,302.89c2.43,5.64,6.1,10.11,11.92,12.85H115.31c-9.76-1.63-16.19-10.17-15.52-20.6.62-9.59,8.81-16.85,19.29-17.13h33.06c-5.43,2.62-9.59,6.22-11.91,11.73-.61,1.43-1.81,1-2.86,1.11-3,.34-6.18-.75-9.12.69a2.65,2.65,0,0,1-.93,1.56c-1.65,1.56-2.65,3.36-1.56,5.62s3.1,2.95,5.48,3.18C134,302.16,136.94,301.05,139.5,302.89Z"/><path class="cls-18" d="M268.49,166.43c6.74,0,13.49,0,20.23,0,4.59,0,6.78,1.81,6.83,5.52s-2.13,5.71-6.63,5.71q-20.61,0-41.22,0c-4.48,0-6.93-2-7-5.51-.05-3.69,2.43-5.7,7.16-5.72C254.75,166.41,261.62,166.43,268.49,166.43Z"/><path class="cls-18" d="M268.49,190.36c7,0,14,0,21,0,4.18,0,6,1.74,6.08,5.42.05,3.34-2.23,5.75-5.95,5.77q-21.18.12-42.35,0c-4.29,0-6.65-2.44-6.52-6.07s2.12-5.11,6.77-5.12C254.5,190.35,261.49,190.36,268.49,190.36Z"/><path class="cls-19" d="M268.16,225c-7,0-14,0-21,0-4.32,0-6.3-1.63-6.44-5.08s2.08-5.88,6.11-6.1c3.61-.2,7.25-.06,10.87-.06,10.25,0,20.49,0,30.74,0,4.57,0,6.95,2,7.09,5.44.17,3.79-1.6,5.71-5.64,5.76C282.66,225,275.41,225,268.16,225Z"/><path class="cls-18" d="M268.31,248.9c-6.86,0-13.72,0-20.59,0-4.48,0-7-2.06-7-5.47,0-3.59,2.51-5.74,6.8-5.75q20.6,0,41.17,0c4.1,0,6.51,1.79,6.83,4.87.41,4-1.63,6.3-5.89,6.34C282.53,249,275.42,248.9,268.31,248.9Z"/><path class="cls-18" d="M109.45,227.94h15.83c.27,2.24-1.27,3.92-1.87,5.9-2,6.71.16,12.08,4.82,16.81,1,1,2.65,1.56,2.25,3.47-7.3,3-14.55,1.55-19.46-3.79-5.14-5.59-6.15-13.06-2.71-20.05C108.7,229.51,109.07,228.72,109.45,227.94Z"/><path class="cls-18" d="M165.71,227.93h15.81c.43,1.37-.55,2.35-1,3.45-3.07,7.65-1.6,14.12,4.52,19.74.89.81,2.09,1.46,1.69,3-7.88,3.17-14.3,1.67-20.13-4.71-4.43-4.84-5.25-12.61-2-19.14C165,229.5,165.33,228.71,165.71,227.93Z"/><path class="cls-20" d="M186.74,254.13c-2.9-3.12-6.38-5.61-7.8-10.07-1.91-6-.81-11.15,2.58-16.12l12,.05c2,4.07,4,7.94,3.13,12.91C195.56,247.16,192.36,251.45,186.74,254.13Z"/><path class="cls-20" d="M130.48,254.12c-2.65-2.86-5.88-5.14-7.45-9-2.54-6.24-1.4-11.82,2.25-17.17l12,0C143.92,239.33,139.33,249.83,130.48,254.12Z"/><path class="cls-21" d="M129.74,139.32c-3.14,1.37-6.09,1.37-8.09-1.82s-.54-5.81,1.95-8.09a22.29,22.29,0,0,0,1.69-1.92c1.62-3.32,4.57-5.5,7.12-8,2.16-2.1,2.35-3.67.06-5.81-2.61-2.43-5.36-4.78-7.26-7.88-.66-.74-1.27-1.52-2-2.19-2.29-2.17-3.42-4.62-1.67-7.59S126,92.79,129,93.73c4.45,4.35,9,8.62,13.3,13.11,1.66,1.72,2.55,1.53,4.07-.09,3.49-3.73,7.18-7.28,10.82-10.87,3.26-3.22,6.21-3.53,8.8-1s2.37,5.62-.76,8.82c-3.67,3.73-7.33,7.48-11.13,11.08-1.51,1.43-1.66,2.29-.07,3.78,3.82,3.59,7.48,7.34,11.14,11.09,3.18,3.26,3.45,6.27,1,8.88s-5.92,2.18-9.15-1.06c-3.6-3.61-7.23-7.21-10.73-10.94-1.47-1.55-2.45-1.52-3.92,0C138.2,130.86,133.94,135.07,129.74,139.32Z"/><path class="cls-21" d="M139.5,302.89c-2.74,0-5.49-.14-8.23-.12-3.3,0-6-.88-6.87-4.44-.79-3.34.85-5.49,3.85-6.79l106,0a35.37,35.37,0,0,1,4.12.09,4.94,4.94,0,0,1,4.71,4.53,5.29,5.29,0,0,1-3.28,6.07c-1.54.72-3.17.55-4.79.55H143.62C142.25,302.76,140.88,302.84,139.5,302.89Z"/><path class="cls-22" d="M125.21,105.82c3.11,3,6.17,6.07,9.33,9,1.38,1.29,1.54,2.26.07,3.62-3.17,2.94-6.22,6-9.32,9C124,120.27,124.55,113,125.21,105.82Z"/></g></g></svg>