<svg xmlns="http://www.w3.org/2000/svg" viewBox="0 0 383.56 383.85"><defs><style>.cls-1{fill:#76cb00;}.cls-2{fill:#80cf13;}.cls-3{fill:#7fce10;}.cls-4{fill:#bae57f;}.cls-5{fill:#bbe580;}.cls-6{fill:#bce682;}.cls-7{fill:#fefefe;}</style></defs><g id="katman_2" data-name="katman 2"><g id="katman_1-2" data-name="katman 1"><path class="cls-1" d="M0,194.18v-4.5a7.88,7.88,0,0,0,0-5.25v-3.75a1,1,0,0,0,0-1.5v-3.75c.9-5,.78-10.12,1.24-15.17,1.32-14.46,5.84-28.07,11.23-41.38A189.3,189.3,0,0,1,50.94,59.21a196,196,0,0,1,50.49-38.62A189.66,189.66,0,0,1,151.1,2.47C158.54.87,166.16.94,173.7.37c1-.08,2,.32,2.89-.37h2.24a1,1,0,0,0,1.5,0h3.74a7.85,7.85,0,0,0,5.24,0h4.49A7.85,7.85,0,0,0,199,0h3.74A1.73,1.73,0,0,0,205,0h2.25c5.61.86,11.3.74,16.93,1.32,13.89,1.45,27,5.8,39.86,11a190,190,0,0,1,60.46,39.21,193.6,193.6,0,0,1,39.81,53.36c8.73,17.36,15.39,35.58,17.7,55,1.79,14.95,1.74,30,1.19,45.14-.42,11.61-1.16,23.11-4.1,34.41-7.22,27.71-19.6,52.86-37.78,74.93A193.3,193.3,0,0,1,283,362.64a195.79,195.79,0,0,1-51,18.77c-7.3,1.59-14.78,1.42-22.17,2.07-.84.08-1.75-.27-2.51.37h-3a1,1,0,0,0-1.49,0h-5.24a5.92,5.92,0,0,0-4.49,0h-3a8,8,0,0,0-5.24,0h-4.49a1,1,0,0,0-1.5,0h-3.74c-5-.89-10.09-.81-15.14-1.23-12.16-1-23.68-4.65-35-8.85a187.49,187.49,0,0,1-46.35-24.71c-23.91-17.62-43.25-39.24-57.37-65.51A192.47,192.47,0,0,1,2.46,232.46C.89,225.12,1,217.62.37,210.19c-.07-.85.27-1.76-.37-2.52v-3a1,1,0,0,0,0-1.5v-3.75A7.85,7.85,0,0,0,0,194.18Z"/><path class="cls-2" d="M0,184.43a4.75,4.75,0,0,1,0,5.25Z"/><path class="cls-2" d="M0,194.18a4.73,4.73,0,0,1,0,5.24Z"/><path class="cls-3" d="M184.82,383.85a4.75,4.75,0,0,1,5.24,0Z"/><path class="cls-3" d="M193.05,383.85a3.74,3.74,0,0,1,4.49,0Z"/><path class="cls-4" d="M0,179.18c.91.5.78,1,0,1.5Z"/><path class="cls-5" d="M0,203.17c.78.5.92,1,0,1.5Z"/><path class="cls-6" d="M178.83,383.85c.5-.92,1-.78,1.5,0Z"/><path class="cls-6" d="M202.78,383.85c.5-.78,1-.92,1.49,0Z"/><path class="cls-7" d="M159.77,284.69c-.66-.61-1.22-1.1-1.75-1.62q-38.75-38.82-77.51-77.6c-1.56-1.55-1.4-2.34.06-3.8q17.28-17.13,34.37-34.45c1.81-1.84,2.74-1.56,4.38.11,12.54,12.69,25.25,25.22,37.7,38,2.42,2.49,3.53,2,5.71-.14q50.67-51,101.46-101.84c2.24-2.27,3.44-2.77,6-.16,10.94,11.3,22.11,22.37,33.29,33.42,1.71,1.69,1.8,2.59,0,4.36Q232.67,211.78,162,282.69C161.27,283.38,160.52,284,159.77,284.69Z"/></g></g></svg>