<svg xmlns="http://www.w3.org/2000/svg" viewBox="0 0 408.69 269.01"><defs><style>.cls-1{fill:#febf6c;}.cls-2{fill:#eca458;}.cls-3{fill:#fe4c4c;}.cls-4{fill:#61aef5;}.cls-5{fill:#3999e9;}.cls-6{fill:#3999e8;}.cls-7{fill:#3d6686;}.cls-8{fill:#3899e8;}.cls-9{fill:#010000;}.cls-10{fill:#33d7dc;}.cls-11{fill:#cac9c8;}</style></defs><g id="katman_2" data-name="katman 2"><g id="katman_1-2" data-name="katman 1"><path d="M5.78,34.11C1.69,33.37,0,30.82,0,26.79c0-4.79-.08-9.58,0-14.36C.23,5.67,4.62,1,11.31.19a35.13,35.13,0,0,1,4-.18H278.18c2.79,0,5.61,0,8.2,1.23,5.27,2.6,7.23,7.09,7.23,12.72,0,17.42.07,34.84-.09,52.26,0,3,.8,3.7,3.75,3.68,18-.15,35.9,0,53.85-.14a22.5,22.5,0,0,1,17.36,7.31q15,15.48,30.3,30.63c4.16,4.13,8,8.38,9.91,14.08v103c-1.78,3-2.92,6.36-5.66,8.82-4.77,4.28-10.47,5-16.41,4.55-3.44-.25-4.95.74-6.09,4.24-5,15.54-20.95,26.52-37.88,26.65-16.58.14-32.57-10.67-37.86-26.08-1.3-3.76-2.91-4.86-6.9-4.85q-89.37.24-178.73,0c-3.2,0-4.55.87-5.57,3.92-5.29,15.95-20.93,26.92-38,27-16.89.09-32.84-11-38.08-26.9-1.11-3.35-2.73-4.16-5.94-4-5.17.24-10.37.14-15.55.05-9.83-.18-16-6.27-16-16q-.06-82,0-164c0-3.88,1.08-6.8,5.29-7.67,3.76-.83,6.24.65,7.42,4.48a22.73,22.73,0,0,1,.51,6.73q0,67,0,134c0,7.06,0,7.06,7,7.06,5.71,0,11.43-.09,17.14,0a10.26,10.26,0,0,0,8.12-3.36c15.74-16.13,40-17.27,57.4-2.82.41.34,0-.17.29.26,3.87,6.16,9.9,6,16.17,5.95q62.2-.12,124.4,0c10.37-.25,20.74,0,31.11-.11,5.36-.05,5.65-.29,5.65-5.63q0-89.15,0-178.27c0-5.5-.39-5.86-5.92-5.87-27.92,0-55.83-.28-83.75-.16-1.57,0-3.24-.28-4.43,1.17-1,1.73-.7,3.63-.71,5.47q0,25.93,0,51.87c0,4.71-1,9-4.88,12.11-2.85,2.27-6.2,2.92-9.74,2.92-17.16,0-34.32.1-51.48,0C110,86.2,105,81.25,105,71.66c-.13-17.56,0-35.11,0-52.67,0-6-.14-6.1-6-6.1q-39.7,0-79.41,0c-6,0-6.25.24-6.31,6.27A65.21,65.21,0,0,1,13,28.33C12.36,32.67,9.77,34.68,5.78,34.11Z"/><path class="cls-1" d="M5.78,34.11c4.83-1.12,6.14-2.72,6.19-7.7,0-3.72.18-7.45,0-11.16-.17-2.65.72-3.4,3.32-3.38,11.43.12,22.86.06,34.28.06,17.68,0,35.35.07,53-.08,3,0,3.78.71,3.76,3.74-.15,18.73-.09,37.47-.07,56.2,0,9.06,4.07,13.14,13.12,13.15q25.92,0,51.83,0c9,0,13.13-4.1,13.14-13.14q0-27.51,0-55c0-1.45.18-2.9.27-4.35,1.1-.71,2.33-.39,3.5-.39Q214,12,240,12c4.13,0,4.58.35,4.71,4.47.19,5.72.06,11.44.06,17.16q0,47.88,0,95.77a25,25,0,0,1-.38,6.35,3.84,3.84,0,0,1-.71,1.3c-2.78,1.65-5.86.69-8.8.93a25.1,25.1,0,0,0-4.67.28c-2.65.78-4.54,2.36-4.36,5.3s2.32,4.23,5,4.87c3.19.24,6.37.05,9.55.15,2.75.08,4.17,1.45,4.27,4.15.21,5.17.2,10.33,0,15.5-.13,3.64-2.55,4.12-5.49,4.12q-20.47,0-41,0c-1.71,0-3.46-.17-5.07.63-2.27,1.07-4.32,2.44-3.89,5.34.46,3.07,3,3.77,5.57,4.25a27.1,27.1,0,0,0,5.17.23c12.63,0,25.26,0,37.89,0,2.08,0,4.31-.4,6.05,1.31,1.08,6.59,1.84,13.19-.45,19.71-8.77.05-17.54.14-26.32.14-35.11,0-70.21,0-105.32.07a7.26,7.26,0,0,1-6.1-2.74,40.1,40.1,0,0,0-60.16-.24,7.92,7.92,0,0,1-6.81,3c-7.71-.2-15.43-.22-23.13,0-3,.09-3.71-.74-3.7-3.71q.15-70.82.07-141.63c0-6-1.43-7.68-6.7-8.27C6.35,45.06,5.53,39.57,5.78,34.11Z"/><path class="cls-2" d="M192.38,171.92c1.24-1.16,2.78-.69,4.19-.69,14.37,0,28.73-.09,43.1,0,2.94,0,4-.77,3.85-3.8-.23-4.91-.14-9.84,0-14.76.05-2.28-.83-2.92-3-3-3.79-.13-7.66.83-11.38-.65,1.41-1.67,3.37-1.28,5.16-1.3,6.21-.07,12.42,0,18.62,0a18.66,18.66,0,0,0,3.95-.26,4,4,0,0,0,3.54-3.71,4.18,4.18,0,0,0-2.55-4.49c-2.33-1.16-4.86-1.08-7.37-1.19-2.32-.1-4.78.58-6.88-1q-.06-59.62-.1-119.25c0-5.3,0-5.3-5.41-5.3l-53.44-.05c1.09-1.17,2.51-.56,3.75-.56,29.65,0,59.31.08,89-.05,3.53,0,4.42.92,4.41,4.44q-.17,91.76,0,183.51c0,3.58-.92,4.42-4.39,4.34-11.29-.28-22.6-.19-33.9-.24q0-9.93,0-19.85c1.91-1.73,4.27-1.1,6.47-1.21,2.38-.13,4.81.19,7.11-.68a4.45,4.45,0,0,0,3.18-4.94c-.23-2.37-1.81-3.42-4-3.74a31.75,31.75,0,0,0-4.78-.18c-17.69,0-35.38,0-53.07,0C196.32,173.24,194.07,173.74,192.38,171.92Z"/><path class="cls-3" d="M172.37,42.67c0,8.91-.09,17.81.06,26.72,0,2.62-.46,3.7-3.42,3.67-15.82-.15-31.64-.12-47.46,0-2.5,0-3.44-.52-3.42-3.25q.18-27.32,0-54.63c0-2.74.89-3.32,3.4-3.3,15.82.09,31.64.11,47.46,0,2.95,0,3.48,1.09,3.44,3.72C172.29,24.59,172.37,33.63,172.37,42.67Z"/><path class="cls-4" d="M358.38,190.55c-10.25-3.55-20.57-4.32-30.75-.07-14.06,5.86-22.56,16.37-25.25,31.44a5.54,5.54,0,0,1-7.88,4.22,1.57,1.57,0,0,1-.88-1.6c0-.93,0-1.86,0-2.79q0-67.83-.07-135.65c0-3.3.49-4.64,4.24-4.45,7.69.39,15.41.22,23.12.27,4,2.15,6.69,5.73,9.72,8.92.94,1,1.54,2.29-.46,3-3.83.74-7.69.25-11.54.39-10,.37-14,4.34-14.05,14.32q-.13,20.34,0,40.67c.05,10.14,4.09,14.22,14.36,14.38,11.3.17,22.6,0,33.9.07,2.08,0,4.31-.39,6,1.34,1.71,5.53.63,11.2.78,16.8C359.71,184.75,360.49,187.9,358.38,190.55Z"/><path class="cls-5" d="M331.29,93.12l-10.4-11.2,32.3-.14a8.18,8.18,0,0,1,5.95,2.83q17.37,17.61,34.75,35.21a9.59,9.59,0,0,1,2.87,7.16q-.08,46.08,0,92.16c0,5.1-1.88,7-7,7.07-1.46,0-2.92,0-4.38,0s-2.13-.26-2.33-1.9c-1.89-15.86-10.63-26.77-24.67-33.78l0-25.76c1.58-1.38,3.52-.92,5.33-1,4.37-.17,8.76.34,13.1-.61,5-1.1,8.11-4.27,8.3-9.27.28-7.29.14-14.6.05-21.9,0-2.85-1.49-5.11-3.35-7-8.84-9.18-17.89-18.16-27-27.06-3.25-3.17-7.49-3.62-11.83-3.84C339.1,93.88,335.05,95.11,331.29,93.12Z"/><path class="cls-6" d="M114.53,216h4.59q78.78,0,157.56,0c1.6,0,4.23-1,4.67.81a23.45,23.45,0,0,1,0,8.68c-.18,1.21-2.1.67-3.24.68q-18.35,0-36.7,0c-40.15,0-80.3-.05-120.46.08-3.54,0-5.51-.52-5.32-4.58C115.71,219.94,115,218.12,114.53,216Z"/><path class="cls-7" d="M371.22,228.37c.12,15.58-12.85,28.58-28.65,28.74-15.28.15-28.75-13-28.83-28.21a29.12,29.12,0,0,1,28.52-29.36C357.93,199.21,371.09,212.31,371.22,228.37Z"/><path class="cls-7" d="M75.49,257a28.62,28.62,0,0,1-28.58-28.66,29,29,0,0,1,28.82-29c15.22,0,28.9,13.79,28.67,29A29.22,29.22,0,0,1,75.49,257Z"/><path class="cls-8" d="M36.38,216c-.47,3-1,5.7-1.31,8.43-.18,1.66-1.14,1.83-2.46,1.83-5.57,0-11.13,0-16.7,0-2.85,0-3.91-1.46-4-4.25-.11-6-.21-6,5.7-6Z"/><path d="M192.38,171.92l59.74,0c1.2,0,2.39,0,3.59,0,3.53.13,5.79,1.81,6.15,5.44.34,3.42-1.83,6-5.68,6.33-4.22.36-8.47.26-12.71.36l-45.06-.21c-1.33,0-2.66.06-4,0-3.32-.2-6.1-1.37-6.7-5S189.07,173,192.38,171.92Z"/><path d="M243.56,137c3.82.09,7.66.1,11.48.29,4.51.21,6.9,2.39,6.86,6s-2.42,5.78-7,5.81c-8.61.05-17.21-.07-25.81-.11-2.83-1-4.46-3-4.38-6a5.79,5.79,0,0,1,4.41-5.54c4.79-.65,9.65.32,14.44-.53Z"/><path class="cls-9" d="M198.11,149.07a48.91,48.91,0,0,1-5.14,0c-3.39-.36-5.3-2.4-5.31-5.76a5.3,5.3,0,0,1,5-5.68,39,39,0,0,1,11,0,5.24,5.24,0,0,1,4.89,5.71c0,3.41-1.9,5.41-5.3,5.75C201.55,149.21,199.82,149.07,198.11,149.07Z"/><path class="cls-2" d="M243.56,137c-4.79.94-9.64.08-14.44.53C233.89,136.13,238.74,137,243.56,137Z"/><path d="M331.29,93.12c4.65.06,9.3.22,13.95.17A14.77,14.77,0,0,1,356.63,98q12.63,13,25.53,25.82a13.82,13.82,0,0,1,4.5,10.64c-.14,6,0,12-.06,17.95-.14,7.71-4.37,11.9-12.24,12.17-5.31.18-10.63.16-15.94.23q-19.92-.1-39.84-.21c-11.26,0-15.07-3.82-15.07-15.09q0-21.12,0-42.25c0-9.62,4.24-13.83,13.85-13.92C322,93.28,326.65,93.19,331.29,93.12Z"/><path d="M361.74,228.26a19.45,19.45,0,0,1-19.05,19.51c-10.54.21-19.49-8.8-19.45-19.58a19.25,19.25,0,1,1,38.5.07Z"/><path d="M94.94,228.34c0,10.44-9.07,19.53-19.35,19.44-10.62-.1-19.79-9.32-19.54-19.67a20,20,0,0,1,19.58-19.24C85.93,208.82,95,217.91,94.94,228.34Z"/><path class="cls-10" d="M344.94,152.63c-8.78,0-17.56-.07-26.34.05-2.4,0-3.22-.65-3.2-3.14q.17-20.55,0-41.09c0-2.39.61-3.27,3.11-3.23,8.64.13,17.29.1,25.94,0a5.69,5.69,0,0,1,4.5,2q11.85,12.14,23.82,24.14a6.15,6.15,0,0,1,2,4.93c-.12,4.12-.21,8.25,0,12.36.17,3.05-.65,4.17-3.93,4.08C362.23,152.48,353.58,152.63,344.94,152.63Z"/><path class="cls-11" d="M342.63,235.76a7.44,7.44,0,1,1,7.21-7.54A7.52,7.52,0,0,1,342.63,235.76Z"/><path class="cls-11" d="M75.63,220.89a7.43,7.43,0,1,1-7.56,7.22A7.81,7.81,0,0,1,75.63,220.89Z"/></g></g></svg>