<svg id="Icon" viewBox="0 0 24 24" fill='currentColor' xmlns="http://www.w3.org/2000/svg"><path d="m16 10.25c-3.171 0-5.75 2.58-5.75 5.75s2.579 5.75 5.75 5.75 5.75-2.58 5.75-5.75-2.579-5.75-5.75-5.75zm2 6.5h-1.25v1.25c0 .414-.336.75-.75.75s-.75-.336-.75-.75v-1.25h-1.25c-.414 0-.75-.336-.75-.75s.336-.75.75-.75h1.25v-1.25c0-.414.336-.75.75-.75s.75.336.75.75v1.25h1.25c.414 0 .75.336.75.75s-.336.75-.75.75zm-8.25-10.975v-3.525h3.5v3.525c0 .253-.317.475-.679.475h-2.143c-.361 0-.679-.222-.679-.475zm11-.775v5.54c-1.27-1.12-2.93-1.79-4.75-1.79-4 0-7.25 3.25-7.25 7.25 0 1.82.67 3.48 1.79 4.75h-5.54c-1.52 0-2.75-1.23-2.75-2.75v-13c0-1.52 1.23-2.75 2.75-2.75h3.25v3.53c0 1.08.98 1.97 2.18 1.97h2.14c1.2 0 2.18-.89 2.18-1.97v-3.53h3.25c1.52 0 2.75 1.23 2.75 2.75z"/></svg>