<svg height="512" fill='currentColor' viewBox="0 0 32 32" width="512" xmlns="http://www.w3.org/2000/svg"><g id="_x30_1"><path d="m24.1843262 17c.4141235 1.161499 1.5137329 2 2.8156738 2 1.6542969 0 3-1.3457031 3-3s-1.3457031-3-3-3c-1.3019409 0-2.4016113.838501-2.8157349 2h-1.1842651v-9h1.1843262c.4141235 1.161499 1.5137329 2 2.8156738 2 1.6542969 0 3-1.3457031 3-3s-1.3457031-3-3-3c-1.3019409 0-2.4016113.838501-2.8157349 2h-2.1842651c-.5522461 0-1 .4477539-1 1v10h-2v2h2v10c0 .5522461.4477539 1 1 1h2.1843262c.4141235 1.161499 1.5137329 2 2.8156738 2 1.6542969 0 3-1.3457031 3-3s-1.3457031-3-3-3c-1.3019409 0-2.4016113.838501-2.8157349 2h-1.1842651v-9z"/><path d="m10.5 15.3253174v8.6749268l6.8935547-3.0810547c.3681641-.1572266.6064453-.519043.6064453-.9189454v-8c0-.0026855-.0011597-.0050659-.0011597-.0077515z"/><path d="m10.3935547 8.0812988c-.25-.1083984-.5371094-.1083984-.7871094 0 0 0-7.0527954 3.0343628-7.0808105 3.0496826l7.4743652 3.3218995 7.4743652-3.3218994c-.0280151-.0153199-7.0808105-3.0496827-7.0808105-3.0496827z"/><path d="m2 12.0002441v8c0 .3999023.2382813.7617188.6064453.9189453l6.8935547 3.0810547v-8.6749268l-7.4988403-3.3328247c0 .0026856-.0011597.005066-.0011597.0077515z"/></g></svg>