<svg id="Layer_1" enable-background="new 0 0 512 512" fill='currentColor' viewBox="0 0 512 512" xmlns="http://www.w3.org/2000/svg"><path d="m429.2 116.7h-186.5l168.2-100c1.7-1 4-.5 5 1.2l33.4 56.3c-13.2 10.1-20.7 26.1-20.1 42.5zm81.8 182.1v65.5c.1 1.9-1.6 3.6-3.6 3.6h-502.8c-2 0-3.6-1.6-3.6-3.6v-65.5c59.7-8.1 59.8-93 0-101.3v-65.5c0-1.8 1.7-3.6 3.6-3.6h502.8c1.9 0 3.6 1.6 3.6 3.6v65.5c-59.7 8.1-59.8 93 0 101.3zm-389.8 40.8c0-7.6-11.7-7.6-11.7 0v10.3c0 7.6 11.6 7.6 11.7 0zm0-32.2c-.1-7.7-11.6-7.7-11.7 0v10.4c.1 7.7 11.5 7.7 11.7 0zm0-32.2c0-7.6-11.7-7.6-11.7 0v10.3c0 7.6 11.6 7.6 11.7 0zm0-32.3c-.1-7.7-11.6-7.7-11.7 0v10.4c.1 7.7 11.5 7.7 11.7 0zm0-32.2c0-7.6-11.7-7.6-11.7 0v10.3c0 7.6 11.6 7.6 11.7 0zm0-32.2c-.1-7.7-11.6-7.7-11.7 0v10.4c.1 7.7 11.5 7.7 11.7 0zm0-32.2c-.1-7.7-11.6-7.7-11.7 0v10.3c0 7.6 11.6 7.6 11.7 0zm304.8 23.1c0-8.4-6.8-15.2-15.2-15.2h-229.8c-8.4 0-15.2 6.8-15.2 15.2v157.4c0 8.4 6.8 15.2 15.2 15.2h229.8c8.4 0 15.2-6.8 15.2-15.2zm-363.2 252.7 33.4 56.2c1 1.7 3.2 2.3 5 1.2l168.1-100h-186.5c.7 16.5-6.9 32.5-20 42.6zm351.6-252.7v157.4c0 2-1.6 3.6-3.6 3.6h-229.8c-1.9 0-3.6-1.6-3.6-3.6v-157.4c0-2 1.6-3.6 3.6-3.6h229.8c2 .1 3.6 1.7 3.6 3.6zm-141.9 65.9c31.6-1 31.7-46.9 0-47.9-31.6 1-31.6 46.9 0 47.9zm41.2 36c-31.6 1-31.6 46.9 0 47.9 31.7-1 31.8-46.9 0-47.9zm21-81.7-94.2 120.2c-4.7 6 4.5 13.3 9.2 7.2l94.1-120.1c4.7-6.1-4.4-13.2-9.1-7.3zm-49.9 21.7c-.3-16.1-24.3-16.1-24.6 0 .3 16.2 24.3 16.2 24.6 0zm16.7 83.9c.4 16.3 24.1 16.2 24.6 0-.3-16-24.3-16.1-24.6 0zm-265.7-266.6c7.3 0 13.4-6 13.4-13.4 0-3.2 2.6-5.8 5.8-5.8s5.8 2.6 5.8 5.8c0 7.3 5.9 13.4 13.3 13.4 7.6 0 7.6 11.6 0 11.7-7.3 0-13.3 5.9-13.3 13.3 0 7.7-11.7 7.6-11.7 0 0-7.3-6-13.3-13.4-13.3-7.6-.2-7.5-11.6.1-11.7zm16.1 5.8c1.1.9 2.2 2 3.1 3.1.9-1.2 2-2.2 3.1-3.1-1.1-1-2.2-2-3.1-3.1-1 1.1-2 2.1-3.1 3.1zm203.5 449.2c-7.4 0-13.3 6-13.3 13.3 0 7.6-11.6 7.6-11.7 0 0-7.4-6-13.3-13.3-13.3-7.6 0-7.6-11.6 0-11.7 7.4 0 13.3-6 13.3-13.3 0-3.2 2.6-5.8 5.8-5.8s5.8 2.6 5.8 5.8c0 7.4 6 13.3 13.3 13.3 7.7 0 7.7 11.6.1 11.7zm-16.1-5.9c-1.1-1-2.2-2-3.1-3.1-1 1.1-2 2.2-3.1 3.1 1.1 1 2.2 2 3.1 3.1 1-1.1 2-2.1 3.1-3.1zm100.8-55.9c-7.3 0-13.3 6-13.3 13.4-.1 7.7-11.6 7.6-11.7 0 0-7.3-6-13.4-13.4-13.4-7.7-.1-7.7-11.5 0-11.7 7.3 0 13.4-6 13.4-13.4 0-3.2 2.6-5.8 5.8-5.8s5.8 2.6 5.8 5.8c0 7.3 5.9 13.4 13.3 13.4 7.8.1 7.8 11.5.1 11.7zm-16-5.9c-1.1-.9-2.2-2-3.1-3.1-1 1.2-2 2.2-3.1 3.1 1.1.9 2.2 2 3.1 3.1.9-1.1 2-2.1 3.1-3.1zm-162.1-374.8c10.4 0 18.8-8.5 18.8-18.8.1-7.7 11.5-7.6 11.7 0 0 10.4 8.5 18.8 18.8 18.8 7.7.1 7.6 11.5 0 11.7-10.4 0-18.8 8.5-18.8 18.8-.1 7.7-11.5 7.6-11.7 0 0-10.4-8.5-18.8-18.8-18.8-7.7-.2-7.7-11.6 0-11.7zm17.9 5.8c2.6 1.9 4.9 4.1 6.8 6.8 1.9-2.6 4.2-4.9 6.8-6.8-2.6-1.9-4.8-4.1-6.8-6.8-1.9 2.7-4.2 4.9-6.8 6.8zm282.1 426.3c-10.4 0-18.8 8.5-18.8 18.8 0 7.6-11.6 7.6-11.7 0 0-10.4-8.5-18.8-18.8-18.8-7.6 0-7.6-11.6 0-11.7 10.4 0 18.8-8.5 18.8-18.8 0-7.6 11.6-7.6 11.7 0 0 10.4 8.5 18.8 18.8 18.8 7.7.1 7.6 11.7 0 11.7zm-17.9-5.8c-2.6-1.9-4.9-4.2-6.7-6.7-1.9 2.6-4.2 4.9-6.7 6.7 2.6 1.9 4.9 4.2 6.7 6.7 1.8-2.5 4.1-4.8 6.7-6.7z"/></svg>