<svg id="Layer_1" fill='currentColor' enable-background="new 0 0 512 512" height="512" viewBox="0 0 512 512" width="512" xmlns="http://www.w3.org/2000/svg"><path clip-rule="evenodd" d="m259.398 320.517v38.921c0 1.102.546 2.047 1.5 2.598l30.461 17.587c2.006 1.159 4.5-.281 4.5-2.598v-51.972l125.727-72.589 39.634 22.882c3.18 1.836 5 4.988 5 8.66v133.631c0 3.672-1.82 6.824-5 8.66l-115.728 66.815c-3.18 1.836-6.82 1.836-10 0l-115.728-66.815c-3.18-1.836-5-4.988-5-8.66v-120.928l35.709 20.616c2.825 1.631 5.846 2.695 8.925 3.192zm9.075-301.631c-3.18-1.836-6.82-1.836-9.999 0l-115.729 66.816c-3.18 1.836-5 4.989-5 8.66v133.631c0 3.672 1.82 6.824 5 8.66l115.728 66.816c3.18 1.836 6.82 1.836 10 0l115.728-66.816c3.18-1.836 5-4.988 5-8.66v-133.631c0-3.672-1.82-6.824-5-8.66l-39.634-22.882-125.727 72.589v51.972c0 2.317-2.493 3.756-4.5 2.598l-30.461-17.587c-.954-.551-1.5-1.496-1.5-2.598v-55.436l125.727-72.589zm-146.728 169.463-31.332 18.09v55.436c0 1.102.546 2.047 1.5 2.598l30.461 17.587c2.006 1.159 4.5-.281 4.5-2.598v-35.909c2.075 2.77 4.729 5.143 7.87 6.956l64.019 36.962v95.229l-22.257 12.85c-3.18 1.836-6.82 1.836-10 0l-115.726-66.815c-3.18-1.836-5-4.988-5-8.66v-133.632c0-3.672 1.82-6.824 5-8.66l70.965-40.971z" fill-rule="evenodd"/></svg>