<?xml version="1.0"?>
<svg xmlns="http://www.w3.org/2000/svg" fill="currentColor" id="Icons" viewBox="0 0 60 60" width="512" height="512"><rect x="24" y="26" width="2.001" height="8"/><path d="M15,26.142V29h2.858A4,4,0,0,0,15,26.142Z"/><path d="M6,38H54V6H6Zm30-4a2,2,0,0,1-2,2H32a2,2,0,0,1-2-2V22a2,2,0,0,1,2-2h2a2,2,0,0,1,2,2Zm8,0a2,2,0,0,1-2,2H40a2,2,0,0,1-2-2V25a2,2,0,0,1,2-2h2a2,2,0,0,1,2,2Zm8,0a2,2,0,0,1-2,2H48a2,2,0,0,1-2-2V22a2,2,0,0,1,2-2h2a2,2,0,0,1,2,2ZM24.293,20.293l7.387-7.387a2,2,0,0,1,2.614-.184l6.612,4.958L48.586,10H48a1,1,0,0,1,0-2h3a1,1,0,0,1,1,1v3a1,1,0,0,1-2,0v-.586l-7.68,7.68a2.007,2.007,0,0,1-2.614.184L33.094,14.32l-7.387,7.387a1,1,0,0,1-1.414-1.414ZM22,26a2,2,0,0,1,2-2h2a2,2,0,0,1,2,2v8a2,2,0,0,1-2,2H24a2,2,0,0,1-2-2ZM13,9.184V9a1,1,0,0,1,2,0v.2a3,3,0,0,1,1.6,1.3,1,1,0,0,1-1.731,1A1,1,0,1,0,14,13a2.993,2.993,0,0,1,1,5.816V19a1,1,0,0,1-2,0v-.2a3,3,0,0,1-1.6-1.3,1,1,0,0,1,1.731-1A1,1,0,1,0,14,15a2.993,2.993,0,0,1-1-5.816ZM14,24a6,6,0,1,1-6,6A6.006,6.006,0,0,1,14,24Z"/><path d="M56,2H4A2,2,0,0,0,2,4V42H58V4A2,2,0,0,0,56,2Zm0,36a2,2,0,0,1-2,2H6a2,2,0,0,1-2-2V6A2,2,0,0,1,6,4H54a2,2,0,0,1,2,2Z"/><path d="M13,29.586V26.142A4,4,0,0,0,10,30a3.947,3.947,0,0,0,.567,2.019Z"/><path d="M14,34a4,4,0,0,0,3.858-3H14.414l-2.433,2.433A3.947,3.947,0,0,0,14,34Z"/><path d="M2,46a2,2,0,0,0,2,2H56a2,2,0,0,0,2-2V44H2Z"/><path d="M15,58H45a2,2,0,0,0,2-2H13A2,2,0,0,0,15,58Z"/><path d="M36.236,50H23.764a7.805,7.805,0,0,1-2.958,4H39.194A7.8,7.8,0,0,1,36.236,50Z"/><rect x="32" y="22" width="2.001" height="12"/><rect x="48" y="22" width="2.001" height="12"/><rect x="40" y="25" width="2.001" height="9"/></svg>
