<svg fill='currentColor' xmlns="http://www.w3.org/2000/svg" viewBox="0 0 335.54 335.34"><g id="katman_2" data-name="katman 2"><g id="katman_1-2" data-name="katman 1"><path d="M95.91,155.76v-3.45c0-29.44,0-58.89.06-88.33,0-2.55-.65-3.74-3.15-4.49C85.94,57.41,79.15,55,71.94,52.64c0,2.74.06,5,0,7.2-.2,6.82-5.07,12-11.8,12q-24.15.19-48.3,0A11.67,11.67,0,0,1,.11,60.17Q-.07,36,.11,11.89A11.66,11.66,0,0,1,12.08.07Q36-.06,60,.08A11.8,11.8,0,0,1,71.92,12c.12,5,0,10,0,15.32l25.73,8.58c.27-.3.49-.45.58-.66,7-15.95,19.1-23.33,36.53-23.26,54.78.19,109.57,0,164.35.08,17.26,0,31.2,10.62,35.24,26.82a41.94,41.94,0,0,1,1.12,10q.09,118.85,0,237.69c0,21.7-15.29,36.92-37,36.93q-82.56,0-165.11,0c-16.43,0-28-7.38-34.78-22.4-.19-.44-.47-.85-.83-1.48-8.54,2.82-17.07,5.53-25.48,8.55-1.16.42-2,2.25-2.6,3.61-5.82,14.08-16.17,22.52-31.4,23.49S11.18,329.3,4,315.67c-9-17.08-2.37-38,14.53-47.53a35.68,35.68,0,0,1,47.84,12.45c.66,1,1.29,2.1,2.11,3.42,8.67-2.87,17.3-5.64,25.83-8.7.85-.3,1.51-2.33,1.52-3.56.12-10.86.07-21.71.07-32.57V179.93H67.58c1.08,2.24,2.13,4.31,3.07,6.43,3.79,8.56-1.64,17.21-11,17.28q-23.58.18-47.17,0c-9.55-.07-15.12-9-10.91-17.57C9.24,170.3,17.18,154.62,25,138.92c2.25-4.48,6-6.48,10.94-6.49s8.68,2,11,6.45c2.48,4.89,4.83,9.85,7.43,14.67a4.3,4.3,0,0,0,2.94,2.12C70,155.81,82.72,155.76,95.91,155.76Zm24.14,0h4.33q20.77,0,41.54,0c8.32,0,13.8,4.72,13.85,11.88s-5.44,12.06-13.67,12.07h-46v23.7H311.27V132H120.05Zm191.53-48.06v-4q0-26.94,0-53.88c0-9.6-4.28-13.86-13.93-13.86H134.49c-1.24,0-2.5,0-3.74.06a10.46,10.46,0,0,0-9.59,7.62c2.68.92,5.37,1.85,8.06,2.76,14,4.7,28.13,9.28,42.12,14.13C179.08,63.22,182,71.41,178,78.1c-3,5-8.67,6.93-15,4.84-13-4.29-26-8.68-39-13-1.25-.42-2.52-.76-3.89-1.17v38.95ZM120.68,291.94c2.69,5.69,6.83,7.61,12.35,7.6q82.7-.07,165.41,0c8.59,0,13.12-4.56,13.13-13.17q0-27.49,0-55v-3.4H120v38.74c1.25-.34,2.32-.57,3.35-.92,13-4.32,26-8.73,39-12.91a17.94,17.94,0,0,1,8-.84,11.55,11.55,0,0,1,9.38,10.74,11.82,11.82,0,0,1-7.79,12c-7.5,2.69-15.11,5.09-22.66,7.62Zm-73-244.07V24.25H24.31V47.87ZM35.45,311.47A12,12,0,1,0,24,299.05,12.1,12.1,0,0,0,35.45,311.47ZM36,170.62c-1.69,3.43-3,6.07-4.35,8.81h8.78Z"/><path d="M227.7,167.91c0,4,.1,8,0,12a11.95,11.95,0,0,1-23.89-.17q-.18-12,0-23.94a11.89,11.89,0,0,1,11.83-12c6.66-.06,11.92,5.18,12.07,12.14C227.77,159.93,227.7,163.92,227.7,167.91Z"/><path d="M263.64,168.21c0,3.86.09,7.73,0,11.6a12,12,0,0,1-23.9,0c-.12-8.1-.14-16.21,0-24.32a11.84,11.84,0,0,1,12.11-11.68,12,12,0,0,1,11.76,11.69C263.75,159.72,263.64,164,263.64,168.21Z"/><path d="M299.59,167.9c0,4,.09,8,0,12a11.95,11.95,0,0,1-23.89-.15q-.18-12,0-23.94a11.9,11.9,0,0,1,11.83-12c6.66-.07,11.93,5.17,12.08,12.13C299.66,159.92,299.59,163.91,299.59,167.9Z"/><path d="M227.7,71.86c0,4,.08,8,0,12a12,12,0,1,1-23.91-.09q-.15-11.79,0-23.57c.08-7,5.3-12.23,12-12.2s11.8,5.28,11.93,12.29C227.76,64.13,227.7,68,227.7,71.86Z"/><path d="M263.64,71.85c0,4,.08,8,0,12a12,12,0,1,1-23.91-.07c-.11-7.86-.1-15.72,0-23.57.09-7,5.29-12.23,12-12.21s11.8,5.27,11.93,12.28C263.71,64.12,263.65,68,263.64,71.85Z"/><path d="M299.59,71.88c0,4,.08,8,0,12a12,12,0,1,1-23.91-.13q-.15-11.79,0-23.57c.08-7,5.31-12.22,12-12.18s11.78,5.29,11.91,12.31C299.65,64.15,299.59,68,299.59,71.88Z"/><path d="M227.7,263.74c0,4,.1,8,0,12a11.95,11.95,0,0,1-23.89-.15q-.18-12,0-23.95a11.89,11.89,0,0,1,11.82-12c6.67-.06,11.93,5.18,12.08,12.14C227.77,255.76,227.7,259.75,227.7,263.74Z"/><path d="M263.64,263.6c0,4,.09,8,0,12a11.95,11.95,0,0,1-23.89.13q-.21-12.17,0-24.32a11.94,11.94,0,0,1,23.88-.12C263.75,255.37,263.63,259.49,263.64,263.6Z"/><path d="M299.58,263.61c0,4,.09,8,0,12a12,12,0,0,1-23.9.11q-.21-12.15,0-24.31a11.94,11.94,0,0,1,23.87-.12C299.7,255.37,299.58,259.49,299.58,263.61Z"/></g></g></svg>